<svg xmlns="http://www.w3.org/2000/svg" xmlns:xlink="http://www.w3.org/1999/xlink" width="500" zoomAndPan="magnify" viewBox="0 0 375 374.999991" height="500" preserveAspectRatio="xMidYMid meet" version="1.0"><defs><g/><clipPath id="dc3b4d1fdb"><path d="M 187.5 0 C 83.945312 0 0 83.945312 0 187.5 C 0 291.054688 83.945312 375 187.5 375 C 291.054688 375 375 291.054688 375 187.5 C 375 83.945312 291.054688 0 187.5 0 Z M 187.5 0 " clip-rule="nonzero"/></clipPath><clipPath id="af0188a070"><path d="M 9.511719 9.511719 L 362.515625 9.511719 L 362.515625 362.515625 L 9.511719 362.515625 Z M 9.511719 9.511719 " clip-rule="nonzero"/></clipPath><clipPath id="c8a2146ad5"><path d="M 186.015625 9.511719 C 88.535156 9.511719 9.511719 88.535156 9.511719 186.015625 C 9.511719 283.492188 88.535156 362.515625 186.015625 362.515625 C 283.492188 362.515625 362.515625 283.492188 362.515625 186.015625 C 362.515625 88.535156 283.492188 9.511719 186.015625 9.511719 Z M 186.015625 9.511719 " clip-rule="nonzero"/></clipPath><clipPath id="d8625b35ce"><path d="M 9.511719 9.511719 L 362.394531 9.511719 L 362.394531 362.394531 L 9.511719 362.394531 Z M 9.511719 9.511719 " clip-rule="nonzero"/></clipPath><clipPath id="00104054b8"><path d="M 186.007812 9.511719 C 88.53125 9.511719 9.511719 88.53125 9.511719 186.007812 C 9.511719 283.488281 88.53125 362.507812 186.007812 362.507812 C 283.488281 362.507812 362.507812 283.488281 362.507812 186.007812 C 362.507812 88.53125 283.488281 9.511719 186.007812 9.511719 Z M 186.007812 9.511719 " clip-rule="nonzero"/></clipPath><clipPath id="37828cbf81"><path d="M 77 150 L 159 150 L 159 245 L 77 245 Z M 77 150 " clip-rule="nonzero"/></clipPath><clipPath id="37092d2c13"><path d="M 41.722656 146.0625 L 138.789062 120.789062 L 170.457031 242.417969 L 73.386719 267.691406 Z M 41.722656 146.0625 " clip-rule="nonzero"/></clipPath><clipPath id="fa52b42b01"><path d="M 138.699219 120.8125 L 41.628906 146.085938 L 73.296875 267.714844 L 170.367188 242.441406 Z M 138.699219 120.8125 " clip-rule="nonzero"/></clipPath><clipPath id="f2a5df6d5c"><path d="M 138.699219 120.8125 L 41.628906 146.085938 L 73.296875 267.714844 L 170.367188 242.441406 Z M 138.699219 120.8125 " clip-rule="nonzero"/></clipPath><clipPath id="1f4bf6026e"><path d="M 81 150 L 159 150 L 159 242 L 81 242 Z M 81 150 " clip-rule="nonzero"/></clipPath><clipPath id="d7694561f7"><path d="M 41.722656 146.0625 L 138.789062 120.789062 L 170.457031 242.417969 L 73.386719 267.691406 Z M 41.722656 146.0625 " clip-rule="nonzero"/></clipPath><clipPath id="1b66d68918"><path d="M 138.699219 120.8125 L 41.628906 146.085938 L 73.296875 267.714844 L 170.367188 242.441406 Z M 138.699219 120.8125 " clip-rule="nonzero"/></clipPath><clipPath id="f442817799"><path d="M 138.699219 120.8125 L 41.628906 146.085938 L 73.296875 267.714844 L 170.367188 242.441406 Z M 138.699219 120.8125 " clip-rule="nonzero"/></clipPath><clipPath id="fc73bdb196"><path d="M 71 138 L 95 138 L 95 164 L 71 164 Z M 71 138 " clip-rule="nonzero"/></clipPath><clipPath id="59769592d6"><path d="M 41.722656 146.0625 L 138.789062 120.789062 L 170.457031 242.417969 L 73.386719 267.691406 Z M 41.722656 146.0625 " clip-rule="nonzero"/></clipPath><clipPath id="72ea709f08"><path d="M 138.699219 120.8125 L 41.628906 146.085938 L 73.296875 267.714844 L 170.367188 242.441406 Z M 138.699219 120.8125 " clip-rule="nonzero"/></clipPath><clipPath id="b5f939c36a"><path d="M 138.699219 120.8125 L 41.628906 146.085938 L 73.296875 267.714844 L 170.367188 242.441406 Z M 138.699219 120.8125 " clip-rule="nonzero"/></clipPath><clipPath id="6923515112"><path d="M 71 138 L 80 138 L 80 147 L 71 147 Z M 71 138 " clip-rule="nonzero"/></clipPath><clipPath id="a3efa20188"><path d="M 41.722656 146.0625 L 138.789062 120.789062 L 170.457031 242.417969 L 73.386719 267.691406 Z M 41.722656 146.0625 " clip-rule="nonzero"/></clipPath><clipPath id="00c7580365"><path d="M 138.699219 120.8125 L 41.628906 146.085938 L 73.296875 267.714844 L 170.367188 242.441406 Z M 138.699219 120.8125 " clip-rule="nonzero"/></clipPath><clipPath id="8f716a6b8c"><path d="M 138.699219 120.8125 L 41.628906 146.085938 L 73.296875 267.714844 L 170.367188 242.441406 Z M 138.699219 120.8125 " clip-rule="nonzero"/></clipPath><clipPath id="a89c4ad3d7"><path d="M 77 158 L 84 158 L 84 164 L 77 164 Z M 77 158 " clip-rule="nonzero"/></clipPath><clipPath id="143863a42c"><path d="M 41.722656 146.0625 L 138.789062 120.789062 L 170.457031 242.417969 L 73.386719 267.691406 Z M 41.722656 146.0625 " clip-rule="nonzero"/></clipPath><clipPath id="27dc37fa26"><path d="M 138.699219 120.8125 L 41.628906 146.085938 L 73.296875 267.714844 L 170.367188 242.441406 Z M 138.699219 120.8125 " clip-rule="nonzero"/></clipPath><clipPath id="a16d9a1827"><path d="M 138.699219 120.8125 L 41.628906 146.085938 L 73.296875 267.714844 L 170.367188 242.441406 Z M 138.699219 120.8125 " clip-rule="nonzero"/></clipPath><clipPath id="bbf2094711"><path d="M 81 158 L 84 158 L 84 161 L 81 161 Z M 81 158 " clip-rule="nonzero"/></clipPath><clipPath id="e1a61e82a5"><path d="M 41.722656 146.0625 L 138.789062 120.789062 L 170.457031 242.417969 L 73.386719 267.691406 Z M 41.722656 146.0625 " clip-rule="nonzero"/></clipPath><clipPath id="b0c629d0e1"><path d="M 138.699219 120.8125 L 41.628906 146.085938 L 73.296875 267.714844 L 170.367188 242.441406 Z M 138.699219 120.8125 " clip-rule="nonzero"/></clipPath><clipPath id="8491dea0ae"><path d="M 138.699219 120.8125 L 41.628906 146.085938 L 73.296875 267.714844 L 170.367188 242.441406 Z M 138.699219 120.8125 " clip-rule="nonzero"/></clipPath><clipPath id="ab59b9ebad"><path d="M 73 146 L 84 146 L 84 164 L 73 164 Z M 73 146 " clip-rule="nonzero"/></clipPath><clipPath id="707f89c28f"><path d="M 41.722656 146.0625 L 138.789062 120.789062 L 170.457031 242.417969 L 73.386719 267.691406 Z M 41.722656 146.0625 " clip-rule="nonzero"/></clipPath><clipPath id="a09aa40ba0"><path d="M 138.699219 120.8125 L 41.628906 146.085938 L 73.296875 267.714844 L 170.367188 242.441406 Z M 138.699219 120.8125 " clip-rule="nonzero"/></clipPath><clipPath id="4f65bd7f43"><path d="M 138.699219 120.8125 L 41.628906 146.085938 L 73.296875 267.714844 L 170.367188 242.441406 Z M 138.699219 120.8125 " clip-rule="nonzero"/></clipPath><clipPath id="fb27c2f0b1"><path d="M 71 138 L 76 138 L 76 147 L 71 147 Z M 71 138 " clip-rule="nonzero"/></clipPath><clipPath id="d9c32467b5"><path d="M 41.722656 146.0625 L 138.789062 120.789062 L 170.457031 242.417969 L 73.386719 267.691406 Z M 41.722656 146.0625 " clip-rule="nonzero"/></clipPath><clipPath id="9b030327eb"><path d="M 138.699219 120.8125 L 41.628906 146.085938 L 73.296875 267.714844 L 170.367188 242.441406 Z M 138.699219 120.8125 " clip-rule="nonzero"/></clipPath><clipPath id="8b8855b7dc"><path d="M 138.699219 120.8125 L 41.628906 146.085938 L 73.296875 267.714844 L 170.367188 242.441406 Z M 138.699219 120.8125 " clip-rule="nonzero"/></clipPath><clipPath id="a9561dd049"><path d="M 70 191 L 167 191 L 167 246 L 70 246 Z M 70 191 " clip-rule="nonzero"/></clipPath><clipPath id="c65bad6335"><path d="M 41.722656 146.0625 L 138.789062 120.789062 L 170.457031 242.417969 L 73.386719 267.691406 Z M 41.722656 146.0625 " clip-rule="nonzero"/></clipPath><clipPath id="2b469482db"><path d="M 138.699219 120.8125 L 41.628906 146.085938 L 73.296875 267.714844 L 170.367188 242.441406 Z M 138.699219 120.8125 " clip-rule="nonzero"/></clipPath><clipPath id="078f60a431"><path d="M 138.699219 120.8125 L 41.628906 146.085938 L 73.296875 267.714844 L 170.367188 242.441406 Z M 138.699219 120.8125 " clip-rule="nonzero"/></clipPath><clipPath id="4aa804e3cd"><path d="M 71 191 L 167 191 L 167 242 L 71 242 Z M 71 191 " clip-rule="nonzero"/></clipPath><clipPath id="f38ad3b689"><path d="M 41.722656 146.0625 L 138.789062 120.789062 L 170.457031 242.417969 L 73.386719 267.691406 Z M 41.722656 146.0625 " clip-rule="nonzero"/></clipPath><clipPath id="a224086498"><path d="M 138.699219 120.8125 L 41.628906 146.085938 L 73.296875 267.714844 L 170.367188 242.441406 Z M 138.699219 120.8125 " clip-rule="nonzero"/></clipPath><clipPath id="e60870bcf6"><path d="M 138.699219 120.8125 L 41.628906 146.085938 L 73.296875 267.714844 L 170.367188 242.441406 Z M 138.699219 120.8125 " clip-rule="nonzero"/></clipPath><clipPath id="3c5118128b"><path d="M 53 191 L 78 191 L 78 211 L 53 211 Z M 53 191 " clip-rule="nonzero"/></clipPath><clipPath id="3d9252c1d2"><path d="M 41.722656 146.0625 L 138.789062 120.789062 L 170.457031 242.417969 L 73.386719 267.691406 Z M 41.722656 146.0625 " clip-rule="nonzero"/></clipPath><clipPath id="edd5c3c7b0"><path d="M 138.699219 120.8125 L 41.628906 146.085938 L 73.296875 267.714844 L 170.367188 242.441406 Z M 138.699219 120.8125 " clip-rule="nonzero"/></clipPath><clipPath id="cd3623a2ae"><path d="M 138.699219 120.8125 L 41.628906 146.085938 L 73.296875 267.714844 L 170.367188 242.441406 Z M 138.699219 120.8125 " clip-rule="nonzero"/></clipPath><clipPath id="3fc2424c25"><path d="M 53 192 L 63 192 L 63 199 L 53 199 Z M 53 192 " clip-rule="nonzero"/></clipPath><clipPath id="93b3e9dc39"><path d="M 41.722656 146.0625 L 138.789062 120.789062 L 170.457031 242.417969 L 73.386719 267.691406 Z M 41.722656 146.0625 " clip-rule="nonzero"/></clipPath><clipPath id="37b62274cd"><path d="M 138.699219 120.8125 L 41.628906 146.085938 L 73.296875 267.714844 L 170.367188 242.441406 Z M 138.699219 120.8125 " clip-rule="nonzero"/></clipPath><clipPath id="b188d12623"><path d="M 138.699219 120.8125 L 41.628906 146.085938 L 73.296875 267.714844 L 170.367188 242.441406 Z M 138.699219 120.8125 " clip-rule="nonzero"/></clipPath><clipPath id="29a08cb832"><path d="M 59 198 L 73 198 L 73 211 L 59 211 Z M 59 198 " clip-rule="nonzero"/></clipPath><clipPath id="10da7f0de0"><path d="M 41.722656 146.0625 L 138.789062 120.789062 L 170.457031 242.417969 L 73.386719 267.691406 Z M 41.722656 146.0625 " clip-rule="nonzero"/></clipPath><clipPath id="b231c3d4fc"><path d="M 138.699219 120.8125 L 41.628906 146.085938 L 73.296875 267.714844 L 170.367188 242.441406 Z M 138.699219 120.8125 " clip-rule="nonzero"/></clipPath><clipPath id="bf4a4f5e99"><path d="M 138.699219 120.8125 L 41.628906 146.085938 L 73.296875 267.714844 L 170.367188 242.441406 Z M 138.699219 120.8125 " clip-rule="nonzero"/></clipPath><clipPath id="800f5cfa0f"><path d="M 53 192 L 73 192 L 73 211 L 53 211 Z M 53 192 " clip-rule="nonzero"/></clipPath><clipPath id="4a5de8a665"><path d="M 41.722656 146.0625 L 138.789062 120.789062 L 170.457031 242.417969 L 73.386719 267.691406 Z M 41.722656 146.0625 " clip-rule="nonzero"/></clipPath><clipPath id="934dac5237"><path d="M 138.699219 120.8125 L 41.628906 146.085938 L 73.296875 267.714844 L 170.367188 242.441406 Z M 138.699219 120.8125 " clip-rule="nonzero"/></clipPath><clipPath id="19f96488d7"><path d="M 138.699219 120.8125 L 41.628906 146.085938 L 73.296875 267.714844 L 170.367188 242.441406 Z M 138.699219 120.8125 " clip-rule="nonzero"/></clipPath><clipPath id="1e71e3aecd"><path d="M 53 192 L 61 192 L 61 199 L 53 199 Z M 53 192 " clip-rule="nonzero"/></clipPath><clipPath id="d03c0e63cb"><path d="M 41.722656 146.0625 L 138.789062 120.789062 L 170.457031 242.417969 L 73.386719 267.691406 Z M 41.722656 146.0625 " clip-rule="nonzero"/></clipPath><clipPath id="f150ea96dd"><path d="M 138.699219 120.8125 L 41.628906 146.085938 L 73.296875 267.714844 L 170.367188 242.441406 Z M 138.699219 120.8125 " clip-rule="nonzero"/></clipPath><clipPath id="dfea3420d5"><path d="M 138.699219 120.8125 L 41.628906 146.085938 L 73.296875 267.714844 L 170.367188 242.441406 Z M 138.699219 120.8125 " clip-rule="nonzero"/></clipPath><clipPath id="0673f1e466"><path d="M 188 130 L 325 130 L 325 267 L 188 267 Z M 188 130 " clip-rule="nonzero"/></clipPath><clipPath id="5702e15cae"><path d="M 186.011719 250.46875 L 308.210938 128.269531 L 327.011719 147.066406 L 204.8125 269.265625 Z M 186.011719 250.46875 " clip-rule="nonzero"/></clipPath><clipPath id="6599babfd6"><path d="M 186.011719 250.46875 L 308.210938 128.269531 L 327.011719 147.066406 L 204.8125 269.265625 Z M 186.011719 250.46875 " clip-rule="nonzero"/></clipPath><clipPath id="f9231c8dd9"><path d="M 186.011719 250.46875 L 308.210938 128.269531 L 327.011719 147.066406 L 204.8125 269.265625 Z M 186.011719 250.46875 " clip-rule="nonzero"/></clipPath><clipPath id="a36ee9fffe"><path d="M 188 130 L 325 130 L 325 268 L 188 268 Z M 188 130 " clip-rule="nonzero"/></clipPath><clipPath id="5ad6b7f977"><path d="M 186.011719 250.46875 L 308.210938 128.269531 L 327.011719 147.066406 L 204.8125 269.265625 Z M 186.011719 250.46875 " clip-rule="nonzero"/></clipPath><clipPath id="0c93f18893"><path d="M 186.011719 250.46875 L 308.210938 128.269531 L 327.011719 147.066406 L 204.8125 269.265625 Z M 186.011719 250.46875 " clip-rule="nonzero"/></clipPath><clipPath id="ff70c3cb3e"><path d="M 186.011719 250.46875 L 308.210938 128.269531 L 327.011719 147.066406 L 204.8125 269.265625 Z M 186.011719 250.46875 " clip-rule="nonzero"/></clipPath><clipPath id="563c7d70ac"><path d="M 190 132 L 312 132 L 312 254 L 190 254 Z M 190 132 " clip-rule="nonzero"/></clipPath><clipPath id="64c2046280"><path d="M 186.011719 250.46875 L 308.210938 128.269531 L 327.011719 147.066406 L 204.8125 269.265625 Z M 186.011719 250.46875 " clip-rule="nonzero"/></clipPath><clipPath id="5df8fc4200"><path d="M 186.011719 250.46875 L 308.210938 128.269531 L 327.011719 147.066406 L 204.8125 269.265625 Z M 186.011719 250.46875 " clip-rule="nonzero"/></clipPath><clipPath id="28b556d8c3"><path d="M 186.011719 250.46875 L 308.210938 128.269531 L 327.011719 147.066406 L 204.8125 269.265625 Z M 186.011719 250.46875 " clip-rule="nonzero"/></clipPath><clipPath id="b8d38754ae"><path d="M 106.109375 113.085938 L 269 113.085938 L 269 276 L 106.109375 276 Z M 106.109375 113.085938 " clip-rule="nonzero"/></clipPath></defs><g clip-path="url(#dc3b4d1fdb)"><rect x="-37.5" width="450" fill="#7e9eff" y="-37.499999" height="449.999989" fill-opacity="1"/></g><g clip-path="url(#af0188a070)"><g clip-path="url(#c8a2146ad5)"><path fill="#7e9eff" d="M 9.511719 9.511719 L 362.515625 9.511719 L 362.515625 362.515625 L 9.511719 362.515625 Z M 9.511719 9.511719 " fill-opacity="1" fill-rule="nonzero"/></g></g><g clip-path="url(#d8625b35ce)"><g clip-path="url(#00104054b8)"><path stroke-linecap="butt" transform="matrix(1.2085, 0, 0, 1.2085, 9.511735, 9.511731)" fill="none" stroke-linejoin="miter" d="M 146.045546 -0.00000991758 C 65.386429 -0.00000991758 -0.0000136412 65.386432 -0.0000136412 146.04555 C -0.0000136412 226.707899 65.386429 292.094341 146.045546 292.094341 C 226.707895 292.094341 292.094338 226.707899 292.094338 146.04555 C 292.094338 65.386432 226.707895 -0.00000991758 146.045546 -0.00000991758 Z M 146.045546 -0.00000991758 " stroke="#ffffff" stroke-width="7.447247" stroke-opacity="1" stroke-miterlimit="4"/></g></g><g clip-path="url(#37828cbf81)"><g clip-path="url(#37092d2c13)"><g clip-path="url(#fa52b42b01)"><g clip-path="url(#f2a5df6d5c)"><path fill="#32941d" d="M 141.4375 244.179688 L 158.183594 231.089844 L 94.527344 150.207031 L 77.78125 163.296875 L 141.4375 244.179688 " fill-opacity="1" fill-rule="nonzero"/></g></g></g></g><g clip-path="url(#1f4bf6026e)"><g clip-path="url(#d7694561f7)"><g clip-path="url(#1b66d68918)"><g clip-path="url(#f442817799)"><path fill="#3bb028" d="M 144.734375 241.601562 L 158.183594 231.089844 L 94.527344 150.207031 L 81.078125 160.71875 L 144.734375 241.601562 " fill-opacity="1" fill-rule="nonzero"/></g></g></g></g><g clip-path="url(#fc73bdb196)"><g clip-path="url(#59769592d6)"><g clip-path="url(#72ea709f08)"><g clip-path="url(#b5f939c36a)"><path fill="#ead4a6" d="M 71.707031 138.398438 L 74.746094 150.847656 L 77.78125 163.296875 L 86.15625 156.753906 L 94.527344 150.207031 L 71.707031 138.398438 " fill-opacity="1" fill-rule="nonzero"/></g></g></g></g><g clip-path="url(#6923515112)"><g clip-path="url(#a3efa20188)"><g clip-path="url(#00c7580365)"><g clip-path="url(#8f716a6b8c)"><path fill="#32941d" d="M 71.707031 138.398438 L 79.503906 142.433594 C 79.113281 143.597656 78.390625 144.664062 77.347656 145.480469 C 76.277344 146.316406 75.027344 146.761719 73.765625 146.847656 L 71.707031 138.398438 " fill-opacity="1" fill-rule="nonzero"/></g></g></g></g><g clip-path="url(#a89c4ad3d7)"><g clip-path="url(#143863a42c)"><g clip-path="url(#27dc37fa26)"><g clip-path="url(#a16d9a1827)"><path fill="#ffffff" d="M 77.78125 163.296875 L 81.078125 160.71875 L 83.644531 158.714844 L 77.78125 163.296875 " fill-opacity="1" fill-rule="nonzero"/></g></g></g></g><g clip-path="url(#bbf2094711)"><g clip-path="url(#e1a61e82a5)"><g clip-path="url(#b0c629d0e1)"><g clip-path="url(#8491dea0ae)"><path fill="#54ba44" d="M 81.078125 160.71875 L 83.644531 158.714844 L 81.078125 160.71875 " fill-opacity="1" fill-rule="nonzero"/></g></g></g></g><g clip-path="url(#ab59b9ebad)"><g clip-path="url(#707f89c28f)"><g clip-path="url(#a09aa40ba0)"><g clip-path="url(#4f65bd7f43)"><path fill="#eddab2" d="M 77.78125 163.296875 L 83.644531 158.714844 C 82.472656 157.664062 81.359375 156.492188 80.339844 155.195312 C 78.171875 152.445312 76.636719 149.441406 75.71875 146.410156 C 75.476562 146.507812 75.230469 146.585938 74.980469 146.648438 C 74.582031 146.753906 74.175781 146.820312 73.765625 146.847656 L 74.746094 150.847656 L 77.78125 163.296875 " fill-opacity="1" fill-rule="nonzero"/></g></g></g></g><g clip-path="url(#fb27c2f0b1)"><g clip-path="url(#d9c32467b5)"><g clip-path="url(#9b030327eb)"><g clip-path="url(#8b8855b7dc)"><path fill="#4da23a" d="M 74.980469 146.648438 C 75.230469 146.585938 75.476562 146.507812 75.71875 146.410156 C 75.066406 144.246094 74.730469 142.066406 74.707031 139.949219 L 71.707031 138.398438 L 73.765625 146.847656 C 74.175781 146.820312 74.582031 146.753906 74.980469 146.648438 " fill-opacity="1" fill-rule="nonzero"/></g></g></g></g><g clip-path="url(#a9561dd049)"><g clip-path="url(#c65bad6335)"><g clip-path="url(#2b469482db)"><g clip-path="url(#078f60a431)"><path fill="#009eaa" d="M 159.035156 245.246094 L 166.347656 227.039062 L 77.632812 191.859375 L 70.324219 210.066406 L 159.035156 245.246094 " fill-opacity="1" fill-rule="nonzero"/></g></g></g></g><g clip-path="url(#4aa804e3cd)"><g clip-path="url(#f38ad3b689)"><g clip-path="url(#a224086498)"><g clip-path="url(#e60870bcf6)"><path fill="#00c2d0" d="M 160.476562 241.660156 L 166.347656 227.039062 L 77.632812 191.859375 L 71.761719 206.480469 L 160.476562 241.660156 " fill-opacity="1" fill-rule="nonzero"/></g></g></g></g><g clip-path="url(#3c5118128b)"><g clip-path="url(#3d9252c1d2)"><g clip-path="url(#edd5c3c7b0)"><g clip-path="url(#cd3623a2ae)"><path fill="#ead4a6" d="M 53.84375 192.976562 L 70.324219 210.066406 L 73.980469 200.960938 L 77.632812 191.859375 L 65.742188 192.417969 L 53.84375 192.976562 " fill-opacity="1" fill-rule="nonzero"/></g></g></g></g><g clip-path="url(#3fc2424c25)"><g clip-path="url(#93b3e9dc39)"><g clip-path="url(#37b62274cd)"><g clip-path="url(#b188d12623)"><path fill="#009eaa" d="M 53.84375 192.976562 L 61.972656 192.597656 C 62.203125 193.707031 62.121094 194.894531 61.664062 196.027344 C 61.199219 197.191406 60.40625 198.125 59.4375 198.777344 L 53.84375 192.976562 " fill-opacity="1" fill-rule="nonzero"/></g></g></g></g><g clip-path="url(#29a08cb832)"><g clip-path="url(#10da7f0de0)"><g clip-path="url(#b231c3d4fc)"><g clip-path="url(#bf4a4f5e99)"><path fill="#ffffff" d="M 70.324219 210.066406 L 62.082031 201.523438 L 59.4375 198.777344 L 62.082031 201.523438 L 70.324219 210.066406 M 71.730469 206.566406 L 72.5 204.644531 L 72.882812 203.691406 L 71.730469 206.566406 " fill-opacity="1" fill-rule="nonzero"/></g></g></g></g><g clip-path="url(#800f5cfa0f)"><g clip-path="url(#4a5de8a665)"><g clip-path="url(#934dac5237)"><g clip-path="url(#19f96488d7)"><path fill="#eddab2" d="M 70.324219 210.066406 L 71.730469 206.566406 L 72.882812 203.691406 C 71.453125 203.394531 70.015625 202.972656 68.59375 202.40625 C 65.574219 201.210938 62.941406 199.523438 60.796875 197.523438 C 60.40625 198.015625 59.945312 198.433594 59.4375 198.777344 L 62.082031 201.523438 L 70.324219 210.066406 M 56.972656 192.832031 L 53.84375 192.976562 L 56.972656 192.832031 " fill-opacity="1" fill-rule="nonzero"/></g></g></g></g><g clip-path="url(#1e71e3aecd)"><g clip-path="url(#d03c0e63cb)"><g clip-path="url(#f150ea96dd)"><g clip-path="url(#dfea3420d5)"><path fill="#21abb5" d="M 59.4375 198.777344 C 59.945312 198.433594 60.40625 198.015625 60.796875 197.523438 C 59.261719 196.097656 57.976562 194.511719 56.972656 192.832031 L 53.84375 192.976562 L 59.4375 198.777344 " fill-opacity="1" fill-rule="nonzero"/></g></g></g></g><g clip-path="url(#0673f1e466)"><g clip-path="url(#5702e15cae)"><g clip-path="url(#6599babfd6)"><g clip-path="url(#f9231c8dd9)"><path fill="#ffb751" d="M 189.007812 247.6875 L 305.429688 131.265625 C 306.277344 130.417969 307.671875 130.425781 308.523438 131.277344 L 324.050781 146.804688 C 324.902344 147.660156 324.910156 149.050781 324.0625 149.898438 L 207.640625 266.320312 C 206.792969 267.167969 205.402344 267.160156 204.550781 266.308594 L 189.019531 250.78125 C 188.167969 249.925781 188.160156 248.535156 189.007812 247.6875 " fill-opacity="1" fill-rule="evenodd"/></g></g></g></g><g clip-path="url(#a36ee9fffe)"><g clip-path="url(#5ad6b7f977)"><g clip-path="url(#0c93f18893)"><g clip-path="url(#ff70c3cb3e)"><path stroke-linecap="round" transform="matrix(0.0966984, -0.0966984, -0.0974086, -0.0974086, 205.575766, 269.284026)" fill="none" stroke-linejoin="round" d="M 26.001331 195.898999 L 1229.970699 195.898999 C 1238.736682 195.898999 1245.907013 188.700742 1245.907013 179.958569 L 1245.907013 20.55427 C 1245.886815 11.792046 1238.736682 4.61384 1229.970699 4.61384 L 26.001331 4.61384 C 17.235348 4.61384 10.085215 11.792046 10.085215 20.534219 L 10.065016 179.958569 C 10.085215 188.720793 17.235348 195.898999 26.001331 195.898999 Z M 26.001331 195.898999 " stroke="#000000" stroke-width="2.16" stroke-opacity="1" stroke-miterlimit="2.613"/></g></g></g></g><g clip-path="url(#563c7d70ac)"><g clip-path="url(#64c2046280)"><g clip-path="url(#5df8fc4200)"><g clip-path="url(#28b556d8c3)"><path fill="#000000" d="M 190.597656 246.101562 L 197.703125 253.207031 C 197.828125 253.332031 197.828125 253.539062 197.707031 253.660156 C 197.585938 253.785156 197.378906 253.78125 197.253906 253.65625 L 190.144531 246.550781 Z M 191.855469 244.84375 L 192.304688 244.390625 L 196.730469 248.820312 C 196.859375 248.945312 196.855469 249.148438 196.730469 249.273438 C 196.609375 249.394531 196.40625 249.398438 196.28125 249.269531 Z M 193.496094 243.199219 L 193.941406 242.753906 L 198.371094 247.183594 C 198.496094 247.308594 198.496094 247.503906 198.375 247.628906 C 198.25 247.753906 198.050781 247.753906 197.925781 247.628906 Z M 195.039062 241.65625 L 195.488281 241.207031 L 199.917969 245.636719 C 200.042969 245.761719 200.039062 245.964844 199.917969 246.085938 C 199.792969 246.210938 199.59375 246.210938 199.46875 246.085938 Z M 196.679688 240.015625 L 197.125 239.570312 L 204.234375 246.675781 C 204.359375 246.800781 204.363281 247.003906 204.238281 247.128906 C 204.113281 247.253906 203.914062 247.246094 203.789062 247.121094 Z M 198.15625 238.539062 L 198.605469 238.089844 L 203.035156 242.515625 C 203.160156 242.644531 203.160156 242.84375 203.035156 242.96875 C 202.914062 243.089844 202.710938 243.09375 202.585938 242.964844 Z M 199.800781 236.894531 L 200.246094 236.449219 L 204.675781 240.878906 C 204.800781 241.003906 204.800781 241.199219 204.675781 241.324219 C 204.550781 241.449219 204.355469 241.449219 204.230469 241.324219 Z M 201.34375 235.351562 L 201.792969 234.902344 L 206.21875 239.332031 C 206.347656 239.457031 206.34375 239.660156 206.21875 239.785156 C 206.097656 239.90625 205.898438 239.90625 205.769531 239.78125 Z M 202.984375 233.710938 L 203.429688 233.265625 L 210.539062 240.371094 C 210.664062 240.496094 210.667969 240.699219 210.542969 240.824219 C 210.417969 240.949219 210.21875 240.945312 210.09375 240.816406 Z M 204.460938 232.234375 L 204.90625 231.789062 L 209.335938 236.214844 C 209.460938 236.34375 209.464844 236.539062 209.339844 236.664062 C 209.214844 236.789062 209.015625 236.789062 208.890625 236.664062 Z M 206.105469 230.589844 L 206.550781 230.144531 L 210.980469 234.574219 C 211.105469 234.699219 211.105469 234.894531 210.980469 235.019531 C 210.855469 235.144531 210.660156 235.144531 210.535156 235.019531 Z M 207.644531 229.050781 L 208.097656 228.597656 L 212.523438 233.027344 C 212.652344 233.152344 212.648438 233.355469 212.523438 233.480469 C 212.398438 233.605469 212.199219 233.605469 212.074219 233.476562 Z M 209.289062 227.40625 L 209.734375 226.960938 L 216.84375 234.066406 C 216.96875 234.195312 216.972656 234.394531 216.847656 234.519531 C 216.722656 234.644531 216.523438 234.640625 216.398438 234.515625 Z M 210.765625 225.929688 L 211.210938 225.484375 L 215.640625 229.914062 C 215.765625 230.039062 215.765625 230.234375 215.644531 230.359375 C 215.519531 230.484375 215.320312 230.484375 215.195312 230.359375 Z M 212.40625 224.289062 L 212.855469 223.839844 L 217.285156 228.269531 C 217.410156 228.394531 217.40625 228.597656 217.285156 228.714844 C 217.160156 228.839844 216.960938 228.84375 216.835938 228.71875 Z M 213.949219 222.746094 L 214.394531 222.300781 L 218.824219 226.726562 C 218.949219 226.855469 218.953125 227.050781 218.828125 227.175781 C 218.703125 227.300781 218.503906 227.300781 218.378906 227.175781 Z M 215.589844 221.105469 L 216.039062 220.65625 L 223.148438 227.765625 C 223.273438 227.890625 223.273438 228.09375 223.152344 228.214844 C 223.027344 228.339844 222.824219 228.339844 222.699219 228.214844 Z M 217.066406 219.628906 L 217.515625 219.179688 L 221.945312 223.609375 C 222.070312 223.734375 222.066406 223.933594 221.945312 224.054688 C 221.824219 224.179688 221.621094 224.183594 221.496094 224.058594 Z M 218.710938 217.984375 L 219.160156 217.535156 L 223.589844 221.964844 C 223.714844 222.089844 223.710938 222.292969 223.585938 222.417969 C 223.464844 222.535156 223.265625 222.539062 223.140625 222.414062 Z M 220.253906 216.441406 L 220.699219 215.996094 L 225.128906 220.425781 C 225.253906 220.550781 225.257812 220.746094 225.132812 220.871094 C 225.007812 220.996094 224.808594 220.996094 224.683594 220.871094 Z M 221.894531 214.800781 L 222.34375 214.351562 L 229.453125 221.460938 C 229.578125 221.585938 229.578125 221.789062 229.457031 221.910156 C 229.332031 222.035156 229.128906 222.035156 229.003906 221.910156 Z M 223.371094 213.324219 L 223.820312 212.875 L 228.25 217.304688 C 228.375 217.429688 228.371094 217.628906 228.25 217.75 C 228.125 217.875 227.925781 217.878906 227.800781 217.753906 Z M 225.015625 211.679688 L 225.464844 211.230469 L 229.894531 215.660156 C 230.019531 215.785156 230.015625 215.988281 229.890625 216.113281 C 229.769531 216.234375 229.570312 216.234375 229.441406 216.109375 Z M 226.554688 210.140625 L 227.003906 209.691406 L 231.433594 214.121094 C 231.558594 214.246094 231.554688 214.445312 231.4375 214.566406 C 231.3125 214.691406 231.109375 214.695312 230.984375 214.570312 Z M 228.199219 208.496094 L 228.648438 208.046875 L 235.753906 215.15625 C 235.882812 215.28125 235.882812 215.484375 235.757812 215.609375 C 235.636719 215.730469 235.433594 215.730469 235.304688 215.605469 Z M 229.675781 207.019531 L 230.125 206.570312 L 234.554688 211 C 234.679688 211.125 234.675781 211.324219 234.554688 211.445312 C 234.429688 211.570312 234.230469 211.574219 234.105469 211.449219 Z M 231.320312 205.375 L 231.765625 204.929688 L 236.191406 209.359375 C 236.320312 209.484375 236.320312 209.683594 236.195312 209.808594 C 236.070312 209.933594 235.875 209.929688 235.746094 209.804688 Z M 232.859375 203.835938 L 233.308594 203.386719 L 237.738281 207.816406 C 237.863281 207.941406 237.859375 208.140625 237.738281 208.261719 C 237.613281 208.386719 237.414062 208.390625 237.289062 208.265625 Z M 234.503906 202.191406 L 234.949219 201.746094 L 242.054688 208.855469 C 242.183594 208.980469 242.1875 209.179688 242.0625 209.304688 C 241.9375 209.429688 241.734375 209.425781 241.609375 209.300781 Z M 235.980469 200.714844 L 236.429688 200.265625 L 240.859375 204.695312 C 240.984375 204.820312 240.980469 205.023438 240.855469 205.144531 C 240.734375 205.265625 240.535156 205.269531 240.410156 205.144531 Z M 237.621094 199.074219 L 238.070312 198.625 L 242.496094 203.054688 C 242.625 203.179688 242.625 203.378906 242.5 203.503906 C 242.375 203.628906 242.175781 203.628906 242.050781 203.5 Z M 239.164062 197.53125 L 239.613281 197.082031 L 244.042969 201.511719 C 244.167969 201.636719 244.164062 201.835938 244.039062 201.960938 C 243.917969 202.082031 243.71875 202.085938 243.59375 201.960938 Z M 240.808594 195.886719 L 241.253906 195.441406 L 248.359375 202.550781 C 248.484375 202.675781 248.492188 202.875 248.367188 203 C 248.242188 203.125 248.039062 203.121094 247.914062 202.996094 Z M 242.285156 194.410156 L 242.730469 193.964844 L 247.160156 198.394531 C 247.285156 198.519531 247.285156 198.71875 247.160156 198.84375 C 247.035156 198.964844 246.839844 198.964844 246.714844 198.839844 Z M 243.925781 192.769531 L 244.371094 192.324219 L 248.800781 196.75 C 248.925781 196.878906 248.929688 197.074219 248.804688 197.199219 C 248.679688 197.324219 248.480469 197.324219 248.355469 197.199219 Z M 245.46875 191.226562 L 245.917969 190.777344 L 250.347656 195.207031 C 250.472656 195.332031 250.46875 195.53125 250.34375 195.65625 C 250.222656 195.777344 250.023438 195.78125 249.898438 195.65625 Z M 247.113281 189.585938 L 247.558594 189.136719 L 254.664062 196.246094 C 254.789062 196.371094 254.796875 196.574219 254.671875 196.699219 C 254.546875 196.820312 254.34375 196.816406 254.21875 196.691406 Z M 248.589844 188.105469 L 249.035156 187.660156 L 253.464844 192.089844 C 253.589844 192.214844 253.589844 192.414062 253.464844 192.539062 C 253.339844 192.664062 253.144531 192.660156 253.015625 192.535156 Z M 250.226562 186.46875 L 250.675781 186.019531 L 255.105469 190.449219 C 255.230469 190.574219 255.230469 190.773438 255.109375 190.894531 C 254.984375 191.019531 254.78125 191.023438 254.65625 190.898438 Z M 251.773438 184.921875 L 252.21875 184.476562 L 256.648438 188.90625 C 256.773438 189.03125 256.773438 189.230469 256.648438 189.355469 C 256.523438 189.476562 256.328125 189.476562 256.203125 189.351562 Z M 253.410156 183.285156 L 253.863281 182.835938 L 260.96875 189.941406 C 261.09375 190.066406 261.09375 190.273438 260.972656 190.394531 C 260.851562 190.519531 260.644531 190.515625 260.519531 190.390625 Z M 254.890625 181.804688 L 255.339844 181.355469 L 259.765625 185.785156 C 259.894531 185.910156 259.894531 186.109375 259.769531 186.234375 C 259.644531 186.359375 259.445312 186.359375 259.316406 186.234375 Z M 256.53125 180.164062 L 256.980469 179.714844 L 261.410156 184.144531 C 261.535156 184.269531 261.53125 184.46875 261.410156 184.59375 C 261.289062 184.714844 261.085938 184.71875 260.960938 184.59375 Z M 258.078125 178.617188 L 258.523438 178.171875 L 262.953125 182.601562 C 263.078125 182.726562 263.078125 182.925781 262.953125 183.050781 C 262.828125 183.175781 262.632812 183.171875 262.507812 183.046875 Z M 259.714844 176.980469 L 260.164062 176.53125 L 267.273438 183.636719 C 267.398438 183.761719 267.398438 183.96875 267.277344 184.089844 C 267.152344 184.214844 266.949219 184.210938 266.824219 184.085938 Z M 261.191406 175.503906 L 261.644531 175.054688 L 266.070312 179.480469 C 266.195312 179.609375 266.195312 179.808594 266.074219 179.929688 C 265.949219 180.054688 265.746094 180.058594 265.621094 179.929688 Z M 262.835938 173.859375 L 263.285156 173.410156 L 267.714844 177.839844 C 267.839844 177.964844 267.835938 178.164062 267.710938 178.289062 C 267.589844 178.414062 267.390625 178.414062 267.265625 178.289062 Z M 264.378906 172.316406 L 264.828125 171.867188 L 269.257812 176.296875 C 269.382812 176.421875 269.382812 176.621094 269.257812 176.746094 C 269.132812 176.871094 268.933594 176.871094 268.804688 176.746094 Z M 266.019531 170.675781 L 266.46875 170.226562 L 273.578125 177.332031 C 273.703125 177.457031 273.703125 177.664062 273.578125 177.789062 C 273.457031 177.910156 273.253906 177.910156 273.128906 177.78125 Z M 267.496094 169.199219 L 267.945312 168.75 L 272.375 173.175781 C 272.5 173.304688 272.5 173.503906 272.378906 173.625 C 272.253906 173.75 272.050781 173.753906 271.925781 173.628906 Z M 269.140625 167.554688 L 269.585938 167.109375 L 274.015625 171.539062 C 274.140625 171.664062 274.140625 171.859375 274.015625 171.984375 C 273.890625 172.109375 273.695312 172.109375 273.570312 171.984375 Z M 270.679688 166.015625 L 271.132812 165.5625 L 275.558594 169.992188 C 275.6875 170.117188 275.683594 170.320312 275.5625 170.441406 C 275.4375 170.566406 275.234375 170.570312 275.109375 170.441406 Z M 272.324219 164.371094 L 272.769531 163.925781 L 279.878906 171.03125 C 280.003906 171.160156 280.007812 171.359375 279.882812 171.484375 C 279.757812 171.609375 279.558594 171.605469 279.433594 171.476562 Z M 273.800781 162.894531 L 274.25 162.445312 L 278.679688 166.875 C 278.804688 167 278.800781 167.199219 278.679688 167.324219 C 278.558594 167.445312 278.355469 167.449219 278.230469 167.324219 Z M 275.445312 161.25 L 275.890625 160.804688 L 280.320312 165.234375 C 280.445312 165.359375 280.445312 165.558594 280.320312 165.679688 C 280.195312 165.804688 280 165.804688 279.875 165.679688 Z M 276.984375 159.710938 L 277.433594 159.261719 L 281.863281 163.6875 C 281.988281 163.816406 281.988281 164.015625 281.863281 164.140625 C 281.742188 164.261719 281.539062 164.265625 281.414062 164.136719 Z M 278.628906 158.066406 L 279.074219 157.621094 L 286.183594 164.726562 C 286.308594 164.855469 286.3125 165.054688 286.1875 165.179688 C 286.0625 165.304688 285.863281 165.300781 285.738281 165.175781 Z M 280.105469 156.589844 L 280.554688 156.140625 L 284.984375 160.570312 C 285.109375 160.695312 285.105469 160.894531 284.980469 161.019531 C 284.859375 161.144531 284.660156 161.144531 284.535156 161.019531 Z M 281.75 154.945312 L 282.195312 154.5 L 286.625 158.929688 C 286.75 159.054688 286.746094 159.257812 286.625 159.378906 C 286.5 159.5 286.304688 159.5 286.179688 159.375 Z M 283.289062 153.40625 L 283.738281 152.957031 L 288.167969 157.386719 C 288.292969 157.511719 288.292969 157.710938 288.167969 157.835938 C 288.042969 157.960938 287.84375 157.960938 287.71875 157.835938 Z M 284.933594 151.761719 L 285.378906 151.316406 L 292.488281 158.425781 C 292.613281 158.550781 292.617188 158.75 292.492188 158.875 C 292.367188 159 292.167969 158.996094 292.042969 158.871094 Z M 286.410156 150.285156 L 286.855469 149.839844 L 291.285156 154.269531 C 291.410156 154.394531 291.410156 154.589844 291.285156 154.714844 C 291.160156 154.839844 290.964844 154.839844 290.839844 154.714844 Z M 288.050781 148.644531 L 288.5 148.195312 L 292.929688 152.625 C 293.054688 152.75 293.050781 152.953125 292.929688 153.074219 C 292.804688 153.199219 292.605469 153.199219 292.480469 153.074219 Z M 289.59375 147.101562 L 290.042969 146.652344 L 294.472656 151.082031 C 294.597656 151.207031 294.59375 151.40625 294.472656 151.53125 C 294.347656 151.65625 294.148438 151.65625 294.023438 151.53125 Z M 291.234375 145.460938 L 291.683594 145.011719 L 298.792969 152.121094 C 298.917969 152.246094 298.917969 152.449219 298.796875 152.570312 C 298.671875 152.695312 298.46875 152.695312 298.339844 152.570312 Z M 292.714844 143.980469 L 293.160156 143.535156 L 297.589844 147.964844 C 297.714844 148.089844 297.710938 148.289062 297.589844 148.410156 C 297.464844 148.535156 297.269531 148.535156 297.144531 148.410156 Z M 294.355469 142.339844 L 294.804688 141.890625 L 299.230469 146.320312 C 299.359375 146.445312 299.355469 146.648438 299.230469 146.773438 C 299.109375 146.894531 298.910156 146.894531 298.78125 146.769531 Z M 295.898438 140.796875 L 296.34375 140.351562 L 300.773438 144.78125 C 300.898438 144.90625 300.898438 145.101562 300.773438 145.226562 C 300.652344 145.351562 300.453125 145.351562 300.328125 145.226562 Z M 297.539062 139.15625 L 297.988281 138.707031 L 305.09375 145.816406 C 305.222656 145.941406 305.222656 146.144531 305.097656 146.269531 C 304.976562 146.390625 304.769531 146.390625 304.644531 146.265625 Z M 299.015625 137.679688 L 299.464844 137.230469 L 303.894531 141.660156 C 304.019531 141.785156 304.015625 141.988281 303.894531 142.105469 C 303.769531 142.230469 303.570312 142.234375 303.445312 142.109375 Z M 300.65625 136.039062 L 301.109375 135.585938 L 305.535156 140.015625 C 305.664062 140.140625 305.660156 140.34375 305.535156 140.46875 C 305.410156 140.59375 305.210938 140.59375 305.085938 140.464844 Z M 302.199219 134.496094 L 302.648438 134.046875 L 307.078125 138.476562 C 307.203125 138.601562 307.203125 138.796875 307.078125 138.921875 C 306.953125 139.046875 306.753906 139.050781 306.628906 138.925781 Z M 303.84375 132.851562 L 304.292969 132.402344 L 311.398438 139.511719 C 311.523438 139.636719 311.527344 139.839844 311.402344 139.964844 C 311.28125 140.085938 311.074219 140.085938 310.949219 139.960938 L 303.84375 132.851562 " fill-opacity="1" fill-rule="nonzero"/></g></g></g></g><path fill="#ffe47e" d="M 109.820312 116.796875 L 187.476562 116.796875 L 187.476562 194.453125 L 109.820312 194.453125 Z M 109.820312 116.796875 " fill-opacity="1" fill-rule="evenodd"/><path fill="#7e9eff" d="M 187.476562 116.796875 L 265.128906 116.796875 L 265.128906 194.453125 L 187.476562 194.453125 Z M 187.476562 116.796875 " fill-opacity="1" fill-rule="evenodd"/><path fill="#ff847e" d="M 187.476562 194.453125 L 265.128906 194.453125 L 265.128906 272.105469 L 187.476562 272.105469 Z M 187.476562 194.453125 " fill-opacity="1" fill-rule="evenodd"/><path fill="#7eff86" d="M 109.820312 194.453125 L 187.476562 194.453125 L 187.476562 272.105469 L 109.820312 272.105469 Z M 109.820312 194.453125 " fill-opacity="1" fill-rule="evenodd"/><g clip-path="url(#b8d38754ae)"><path fill="#ffffff" d="M 106.09375 116.796875 L 106.09375 272.105469 C 106.09375 274.164062 107.765625 275.832031 109.820312 275.832031 L 265.128906 275.832031 C 266.148438 275.832031 267.074219 275.421875 267.746094 274.753906 L 267.902344 274.59375 L 268.046875 274.421875 L 268.269531 274.113281 L 268.414062 273.859375 L 268.527344 273.636719 C 268.589844 273.492188 268.648438 273.34375 268.695312 273.191406 C 268.765625 272.949219 268.816406 272.699219 268.839844 272.441406 L 268.855469 272.105469 L 268.855469 116.796875 C 268.855469 114.738281 267.1875 113.070312 265.128906 113.070312 L 109.820312 113.070312 C 107.765625 113.070312 106.09375 114.738281 106.09375 116.796875 Z M 183.75 268.378906 L 183.75 198.179688 L 113.550781 198.179688 L 113.550781 268.378906 Z M 222.960938 268.378906 L 191.203125 268.378906 L 191.203125 198.179688 C 191.203125 198.179688 261.402344 198.179688 261.402344 198.179688 C 261.402344 198.179688 261.402344 268.378906 261.402344 268.378906 Z M 146.925781 228.007812 L 138.320312 219.402344 C 136.867188 217.945312 134.503906 217.945312 133.050781 219.402344 C 131.59375 220.855469 131.59375 223.21875 133.050781 224.671875 L 141.65625 233.277344 L 133.050781 241.882812 C 131.59375 243.339844 131.59375 245.699219 133.050781 247.152344 C 134.503906 248.609375 136.867188 248.609375 138.320312 247.152344 L 146.925781 238.546875 L 155.53125 247.152344 C 156.988281 248.609375 159.347656 248.609375 160.804688 247.152344 C 162.257812 245.699219 162.257812 243.339844 160.804688 241.882812 L 152.199219 233.277344 L 160.804688 224.671875 C 162.257812 223.21875 162.257812 220.855469 160.804688 219.402344 C 159.347656 217.945312 156.988281 217.945312 155.53125 219.402344 Z M 213.503906 244.953125 L 239.871094 244.953125 C 241.925781 244.953125 243.597656 243.285156 243.597656 241.226562 C 243.597656 239.167969 241.925781 237.5 239.871094 237.5 L 213.503906 237.5 C 211.445312 237.5 209.777344 239.167969 209.777344 241.226562 C 209.777344 243.285156 211.445312 244.953125 213.503906 244.953125 Z M 212.734375 229.054688 L 239.097656 229.054688 C 241.15625 229.054688 242.828125 227.386719 242.828125 225.328125 C 242.828125 223.273438 241.15625 221.601562 239.097656 221.601562 L 212.734375 221.601562 C 210.675781 221.601562 209.003906 223.273438 209.003906 225.328125 C 209.003906 227.386719 210.675781 229.054688 212.734375 229.054688 Z M 113.550781 120.527344 L 113.550781 190.722656 L 183.75 190.722656 L 183.75 120.527344 Z M 191.203125 120.527344 L 261.402344 120.527344 L 261.402344 190.722656 L 191.203125 190.722656 Z M 143.199219 151.898438 L 131.03125 151.898438 C 128.972656 151.898438 127.300781 153.566406 127.300781 155.625 C 127.300781 157.683594 128.972656 159.351562 131.03125 159.351562 L 143.199219 159.351562 L 143.199219 171.523438 C 143.199219 173.578125 144.871094 175.25 146.925781 175.25 C 148.984375 175.25 150.652344 173.578125 150.652344 171.523438 L 150.652344 159.351562 L 162.824219 159.351562 C 164.878906 159.351562 166.550781 157.683594 166.550781 155.625 C 166.550781 153.566406 164.878906 151.898438 162.824219 151.898438 L 150.652344 151.898438 L 150.652344 139.726562 C 150.652344 137.671875 148.984375 136 146.925781 136 C 144.871094 136 143.199219 137.671875 143.199219 139.726562 Z M 237.542969 161.582031 C 234.625 161.582031 232.257812 163.949219 232.257812 166.867188 C 232.257812 169.78125 234.625 172.152344 237.542969 172.152344 C 240.460938 172.152344 242.828125 169.78125 242.828125 166.867188 C 242.828125 163.949219 240.460938 161.582031 237.542969 161.582031 Z M 234.90625 141.75 L 212.425781 164.230469 C 210.96875 165.683594 210.96875 168.046875 212.425781 169.5 C 213.878906 170.957031 216.242188 170.957031 217.695312 169.5 L 240.179688 147.019531 C 241.632812 145.566406 241.632812 143.203125 240.179688 141.75 C 238.722656 140.292969 236.363281 140.292969 234.90625 141.75 Z M 215.058594 139.097656 C 212.144531 139.097656 209.777344 141.46875 209.777344 144.382812 C 209.777344 147.300781 212.144531 149.667969 215.058594 149.667969 C 217.976562 149.667969 220.34375 147.300781 220.34375 144.382812 C 220.34375 141.46875 217.976562 139.097656 215.058594 139.097656 Z M 215.058594 139.097656 " fill-opacity="1" fill-rule="evenodd"/></g><g fill="#ffffff" fill-opacity="1"><g transform="translate(110.199281, 93.347154)"><g><path d="M 14.09375 0.5625 C 13.53125 0.5625 13.015625 0.457031 12.546875 0.25 C 12.078125 0.0390625 11.65625 -0.34375 11.28125 -0.90625 C 9.320312 -4.363281 7.675781 -8.175781 6.34375 -12.34375 C 5.007812 -16.519531 3.96875 -20.785156 3.21875 -25.140625 C 2.46875 -29.503906 1.941406 -33.695312 1.640625 -37.71875 C 1.597656 -38.664062 1.8125 -39.285156 2.28125 -39.578125 C 2.75 -39.878906 3.507812 -40.03125 4.5625 -40.03125 C 5.988281 -40.03125 6.722656 -39.453125 6.765625 -38.296875 C 7.179688 -32.160156 8.046875 -26.441406 9.359375 -21.140625 C 10.671875 -15.847656 12.304688 -11.132812 14.265625 -7 C 15.660156 -10.375 16.9375 -13.828125 18.09375 -17.359375 C 19.257812 -20.898438 20.25 -24.378906 21.0625 -27.796875 C 21.875 -31.222656 22.46875 -34.4375 22.84375 -37.4375 C 23.0625 -38.414062 23.382812 -39.101562 23.8125 -39.5 C 24.25 -39.894531 24.769531 -40.09375 25.375 -40.09375 C 26.09375 -40.09375 26.65625 -39.910156 27.0625 -39.546875 C 27.476562 -39.191406 27.835938 -38.488281 28.140625 -37.4375 C 29.453125 -31.757812 30.988281 -26.304688 32.75 -21.078125 C 34.519531 -15.859375 36.382812 -11.109375 38.34375 -6.828125 C 40.601562 -11.078125 42.390625 -15.71875 43.703125 -20.75 C 45.015625 -25.789062 45.671875 -30.976562 45.671875 -36.3125 C 45.671875 -36.613281 45.671875 -36.929688 45.671875 -37.265625 C 45.671875 -37.609375 45.671875 -37.929688 45.671875 -38.234375 C 45.671875 -38.910156 45.859375 -39.378906 46.234375 -39.640625 C 46.609375 -39.898438 47.210938 -40.03125 48.046875 -40.03125 C 48.867188 -40.03125 49.523438 -39.914062 50.015625 -39.6875 C 50.503906 -39.46875 50.75 -38.984375 50.75 -38.234375 C 50.789062 -37.816406 50.8125 -37.390625 50.8125 -36.953125 C 50.8125 -36.523438 50.8125 -36.101562 50.8125 -35.6875 C 50.8125 -29.34375 49.960938 -23.179688 48.265625 -17.203125 C 46.578125 -11.222656 44.210938 -5.789062 41.171875 -0.90625 C 40.753906 -0.34375 40.3125 0.0390625 39.84375 0.25 C 39.375 0.457031 38.875 0.5625 38.34375 0.5625 C 37.851562 0.5625 37.390625 0.457031 36.953125 0.25 C 36.523438 0.0390625 36.125 -0.304688 35.75 -0.796875 C 33.6875 -4.703125 31.789062 -8.957031 30.0625 -13.5625 C 28.332031 -18.164062 26.921875 -22.6875 25.828125 -27.125 C 25.003906 -22.6875 23.8125 -18.164062 22.25 -13.5625 C 20.6875 -8.957031 18.832031 -4.703125 16.6875 -0.796875 C 16.3125 -0.304688 15.914062 0.0390625 15.5 0.25 C 15.09375 0.457031 14.625 0.5625 14.09375 0.5625 Z M 14.09375 0.5625 "/></g></g></g><g fill="#ffffff" fill-opacity="1"><g transform="translate(162.636346, 93.347154)"><g><path d="M 17.25 0.5625 C 12.289062 0.5625 8.679688 -0.769531 6.421875 -3.4375 C 4.171875 -6.101562 3.046875 -9.804688 3.046875 -14.546875 C 3.046875 -17.179688 3.609375 -19.566406 4.734375 -21.703125 C 5.859375 -23.847656 7.484375 -25.5625 9.609375 -26.84375 C 11.734375 -28.125 14.300781 -28.765625 17.3125 -28.765625 C 19.976562 -28.765625 22.316406 -28.378906 24.328125 -27.609375 C 26.335938 -26.835938 27.984375 -25.734375 29.265625 -24.296875 C 29.640625 -23.960938 29.828125 -23.550781 29.828125 -23.0625 C 29.828125 -22.457031 29.566406 -21.929688 29.046875 -21.484375 L 28.984375 -21.421875 C 29.847656 -20.335938 30.539062 -19.039062 31.0625 -17.53125 C 31.59375 -16.03125 31.859375 -14.4375 31.859375 -12.75 C 31.859375 -8.757812 30.632812 -5.539062 28.1875 -3.09375 C 25.75 -0.65625 22.101562 0.5625 17.25 0.5625 Z M 7.890625 -14.375 C 7.890625 -10.988281 8.675781 -8.382812 10.25 -6.5625 C 11.832031 -4.738281 14.300781 -3.828125 17.65625 -3.828125 C 20.882812 -3.828125 23.238281 -4.632812 24.71875 -6.25 C 26.207031 -7.875 26.953125 -9.960938 26.953125 -12.515625 C 26.953125 -13.867188 26.734375 -15.175781 26.296875 -16.4375 C 25.867188 -17.695312 25.222656 -18.738281 24.359375 -19.5625 C 23.867188 -19.9375 23.625 -20.351562 23.625 -20.8125 C 23.625 -21.257812 23.867188 -21.785156 24.359375 -22.390625 C 23.492188 -22.953125 22.476562 -23.421875 21.3125 -23.796875 C 20.144531 -24.171875 18.789062 -24.359375 17.25 -24.359375 C 15.414062 -24.359375 13.789062 -23.925781 12.375 -23.0625 C 10.96875 -22.195312 9.867188 -21.007812 9.078125 -19.5 C 8.285156 -18 7.890625 -16.289062 7.890625 -14.375 Z M 7.890625 -14.375 "/></g></g></g><g fill="#ffffff" fill-opacity="1"><g transform="translate(197.481633, 93.347154)"><g><path d="M 7.21875 0.5625 C 6.164062 0.5625 5.503906 0.363281 5.234375 -0.03125 C 4.972656 -0.425781 4.828125 -0.90625 4.796875 -1.46875 C 4.753906 -3.457031 4.695312 -5.632812 4.625 -8 C 4.550781 -10.375 4.515625 -13.007812 4.515625 -15.90625 C 4.515625 -17.59375 4.519531 -18.988281 4.53125 -20.09375 C 4.550781 -21.207031 4.585938 -22.253906 4.640625 -23.234375 C 4.703125 -24.210938 4.769531 -25.320312 4.84375 -26.5625 C 4.882812 -27.988281 5.582031 -28.703125 6.9375 -28.703125 C 8.101562 -28.703125 8.875 -28.515625 9.25 -28.140625 C 9.625 -27.765625 9.789062 -27.238281 9.75 -26.5625 L 9.53125 -23.96875 C 10.582031 -25.625 11.867188 -26.816406 13.390625 -27.546875 C 14.910156 -28.273438 16.382812 -28.640625 17.8125 -28.640625 C 19.25 -28.640625 20.472656 -28.488281 21.484375 -28.1875 C 22.492188 -27.894531 23.378906 -27.445312 24.140625 -26.84375 C 24.546875 -26.46875 24.75 -26.050781 24.75 -25.59375 C 24.75 -25.113281 24.5625 -24.570312 24.1875 -23.96875 C 24 -23.625 23.753906 -23.335938 23.453125 -23.109375 C 23.148438 -22.890625 22.832031 -22.78125 22.5 -22.78125 C 22.164062 -22.78125 21.898438 -22.851562 21.703125 -23 C 20.390625 -23.832031 18.773438 -24.25 16.859375 -24.25 C 16.148438 -24.25 15.367188 -24.113281 14.515625 -23.84375 C 13.671875 -23.582031 12.863281 -23.09375 12.09375 -22.375 C 11.320312 -21.664062 10.679688 -20.660156 10.171875 -19.359375 C 9.671875 -18.066406 9.421875 -16.390625 9.421875 -14.328125 C 9.421875 -13.867188 9.425781 -13.125 9.4375 -12.09375 C 9.457031 -11.0625 9.488281 -9.878906 9.53125 -8.546875 C 9.570312 -7.210938 9.617188 -5.914062 9.671875 -4.65625 C 9.722656 -3.394531 9.769531 -2.3125 9.8125 -1.40625 C 9.8125 -0.09375 8.945312 0.5625 7.21875 0.5625 Z M 7.21875 0.5625 "/></g></g></g><g fill="#ffffff" fill-opacity="1"><g transform="translate(223.869318, 93.347154)"><g><path d="M 16.6875 0.5625 C 13.976562 0.5625 11.597656 0.0351562 9.546875 -1.015625 C 7.503906 -2.066406 5.898438 -3.707031 4.734375 -5.9375 C 3.566406 -8.175781 2.984375 -11.03125 2.984375 -14.5 C 2.984375 -17.3125 3.53125 -19.789062 4.625 -21.9375 C 5.71875 -24.082031 7.316406 -25.753906 9.421875 -26.953125 C 11.523438 -28.160156 14.082031 -28.765625 17.09375 -28.765625 C 19.457031 -28.765625 21.519531 -28.335938 23.28125 -27.484375 C 25.050781 -26.640625 26.484375 -25.445312 27.578125 -23.90625 C 27.648438 -25.5625 27.722656 -27.289062 27.796875 -29.09375 C 27.867188 -30.894531 27.941406 -32.613281 28.015625 -34.25 C 28.097656 -35.882812 28.164062 -37.273438 28.21875 -38.421875 C 28.28125 -39.578125 28.3125 -40.320312 28.3125 -40.65625 C 28.34375 -41.519531 28.523438 -42.101562 28.859375 -42.40625 C 29.203125 -42.707031 29.882812 -42.859375 30.90625 -42.859375 C 31.957031 -42.816406 32.613281 -42.644531 32.875 -42.34375 C 33.132812 -42.039062 33.265625 -41.570312 33.265625 -40.9375 C 33.265625 -40.601562 33.226562 -39.878906 33.15625 -38.765625 C 33.082031 -37.660156 33.003906 -36.316406 32.921875 -34.734375 C 32.847656 -33.160156 32.765625 -31.457031 32.671875 -29.625 C 32.578125 -27.800781 32.503906 -26.003906 32.453125 -24.234375 C 32.398438 -22.472656 32.375 -20.878906 32.375 -19.453125 C 32.375 -16.554688 32.390625 -14.117188 32.421875 -12.140625 C 32.460938 -10.171875 32.601562 -8.472656 32.84375 -7.046875 C 33.09375 -5.617188 33.476562 -4.226562 34 -2.875 C 34.070312 -2.613281 34.132812 -2.378906 34.1875 -2.171875 C 34.25 -1.960938 34.28125 -1.765625 34.28125 -1.578125 C 34.28125 -1.203125 34.15625 -0.878906 33.90625 -0.609375 C 33.664062 -0.347656 33.34375 -0.125 32.9375 0.0625 C 32.144531 0.394531 31.503906 0.5625 31.015625 0.5625 C 30.335938 0.5625 29.847656 0.164062 29.546875 -0.625 C 29.171875 -1.375 28.859375 -2.3125 28.609375 -3.4375 C 28.367188 -4.5625 28.175781 -5.75 28.03125 -7 C 26.863281 -4.507812 25.289062 -2.625 23.3125 -1.34375 C 21.34375 -0.0703125 19.132812 0.5625 16.6875 0.5625 Z M 7.890625 -14.4375 C 7.890625 -10.675781 8.734375 -7.976562 10.421875 -6.34375 C 12.117188 -4.707031 14.34375 -3.890625 17.09375 -3.890625 C 19.757812 -3.890625 22.039062 -4.976562 23.9375 -7.15625 C 25.832031 -9.34375 26.96875 -12.460938 27.34375 -16.515625 C 26.664062 -18.960938 25.53125 -20.890625 23.9375 -22.296875 C 22.34375 -23.710938 20.265625 -24.421875 17.703125 -24.421875 C 14.617188 -24.421875 12.210938 -23.476562 10.484375 -21.59375 C 8.753906 -19.71875 7.890625 -17.332031 7.890625 -14.4375 Z M 7.890625 -14.4375 "/></g></g></g><g fill="#ffffff" fill-opacity="1"><g transform="translate(61.651079, 279.551286)"><g><path d="M 12.546875 3.78125 C 12.035156 3.28125 11.550781 2.78125 11.09375 2.28125 C 10.644531 1.78125 10.238281 1.296875 9.875 0.828125 C 9.238281 1.484375 8.660156 2.097656 8.140625 2.671875 C 7.628906 3.242188 7.195312 3.722656 6.84375 4.109375 C 6.5 4.554688 6.066406 4.816406 5.546875 4.890625 C 5.023438 4.960938 4.378906 4.628906 3.609375 3.890625 C 2.929688 3.242188 2.53125 2.691406 2.40625 2.234375 C 2.28125 1.773438 2.460938 1.253906 2.953125 0.671875 C 3.484375 0.078125 3.988281 -0.476562 4.46875 -1 C 4.957031 -1.53125 5.503906 -2.113281 6.109375 -2.75 C 6.722656 -3.394531 7.472656 -4.179688 8.359375 -5.109375 C 9.390625 -6.179688 10.398438 -7.191406 11.390625 -8.140625 C 12.390625 -9.085938 13.296875 -9.9375 14.109375 -10.6875 C 14.023438 -10.726562 13.957031 -10.769531 13.90625 -10.8125 C 13.863281 -10.863281 13.816406 -10.914062 13.765625 -10.96875 C 13.378906 -11.332031 13.207031 -11.695312 13.25 -12.0625 C 13.300781 -12.4375 13.484375 -12.878906 13.796875 -13.390625 C 13.921875 -13.546875 14.035156 -13.695312 14.140625 -13.84375 C 14.242188 -13.988281 14.347656 -14.117188 14.453125 -14.234375 C 14.742188 -14.546875 15.0625 -14.722656 15.40625 -14.765625 C 15.757812 -14.804688 16.195312 -14.671875 16.71875 -14.359375 C 17.71875 -13.828125 18.671875 -13.1875 19.578125 -12.4375 C 20.492188 -11.695312 21.351562 -10.945312 22.15625 -10.1875 C 25.195312 -7.257812 26.9375 -4.644531 27.375 -2.34375 C 27.820312 -0.0390625 27.035156 2.160156 25.015625 4.265625 C 23.273438 6.085938 21.320312 6.992188 19.15625 6.984375 C 16.988281 6.984375 14.785156 5.914062 12.546875 3.78125 Z M 13.0625 -2.546875 C 13.375 -2.128906 13.722656 -1.679688 14.109375 -1.203125 C 14.492188 -0.722656 14.910156 -0.273438 15.359375 0.140625 C 16.484375 1.222656 17.554688 1.773438 18.578125 1.796875 C 19.609375 1.816406 20.5 1.4375 21.25 0.65625 C 22.09375 -0.21875 22.398438 -1.226562 22.171875 -2.375 C 21.953125 -3.53125 21.113281 -4.804688 19.65625 -6.203125 C 19.425781 -6.421875 19.195312 -6.640625 18.96875 -6.859375 C 18.738281 -7.078125 18.507812 -7.28125 18.28125 -7.46875 C 17.601562 -6.851562 16.816406 -6.132812 15.921875 -5.3125 C 15.035156 -4.5 14.082031 -3.578125 13.0625 -2.546875 Z M 13.0625 -2.546875 "/></g></g></g><g fill="#ffffff" fill-opacity="1"><g transform="translate(78.115302, 295.006245)"><g><path d="M 3.296875 2.90625 C 2.734375 2.476562 2.359375 2.085938 2.171875 1.734375 C 1.992188 1.390625 1.953125 1.066406 2.046875 0.765625 C 2.148438 0.460938 2.3125 0.160156 2.53125 -0.140625 C 3.113281 -0.984375 3.753906 -1.890625 4.453125 -2.859375 C 5.160156 -3.835938 5.851562 -4.773438 6.53125 -5.671875 C 7.1875 -6.523438 7.796875 -7.285156 8.359375 -7.953125 C 8.921875 -8.628906 9.488281 -9.320312 10.0625 -10.03125 C 10.613281 -10.6875 11.125 -11.023438 11.59375 -11.046875 C 12.070312 -11.078125 12.597656 -10.875 13.171875 -10.4375 C 14.015625 -9.789062 14.472656 -9.222656 14.546875 -8.734375 C 14.617188 -8.242188 14.488281 -7.769531 14.15625 -7.3125 C 14.976562 -7.46875 15.75 -7.453125 16.46875 -7.265625 C 17.1875 -7.078125 17.8125 -6.78125 18.34375 -6.375 C 18.945312 -5.914062 19.40625 -5.453125 19.71875 -4.984375 C 20.03125 -4.515625 20.238281 -4.015625 20.34375 -3.484375 C 20.4375 -2.972656 20.351562 -2.550781 20.09375 -2.21875 C 19.96875 -2.050781 19.789062 -1.882812 19.5625 -1.71875 C 19.332031 -1.5625 19.054688 -1.410156 18.734375 -1.265625 C 18.328125 -1.097656 17.925781 -1.007812 17.53125 -1 C 17.144531 -0.988281 16.816406 -1.085938 16.546875 -1.296875 C 16.378906 -1.421875 16.242188 -1.613281 16.140625 -1.875 C 15.859375 -2.550781 15.429688 -3.113281 14.859375 -3.5625 C 14.484375 -3.84375 14.035156 -4.023438 13.515625 -4.109375 C 13.003906 -4.191406 12.453125 -4.082031 11.859375 -3.78125 C 11.273438 -3.476562 10.644531 -2.882812 9.96875 -2 C 9.84375 -1.832031 9.628906 -1.535156 9.328125 -1.109375 C 9.023438 -0.679688 8.6875 -0.210938 8.3125 0.296875 C 7.945312 0.816406 7.601562 1.3125 7.28125 1.78125 C 6.96875 2.257812 6.710938 2.628906 6.515625 2.890625 C 6.109375 3.421875 5.648438 3.691406 5.140625 3.703125 C 4.640625 3.722656 4.023438 3.457031 3.296875 2.90625 Z M 3.296875 2.90625 "/></g></g></g><g fill="#ffffff" fill-opacity="1"><g transform="translate(90.742003, 304.743248)"><g><path d="M 8.421875 5.4375 C 5.753906 3.832031 4.210938 2.023438 3.796875 0.015625 C 3.390625 -1.992188 3.878906 -4.148438 5.265625 -6.453125 C 6.035156 -7.734375 7.019531 -8.722656 8.21875 -9.421875 C 9.414062 -10.117188 10.753906 -10.441406 12.234375 -10.390625 C 13.722656 -10.347656 15.296875 -9.828125 16.953125 -8.828125 C 18.390625 -7.960938 19.515625 -7.039062 20.328125 -6.0625 C 21.140625 -5.09375 21.671875 -4.070312 21.921875 -3 C 22.078125 -2.507812 22.03125 -2.054688 21.78125 -1.640625 C 21.632812 -1.398438 21.40625 -1.175781 21.09375 -0.96875 C 21.207031 -0.21875 21.1875 0.535156 21.03125 1.296875 C 20.882812 2.066406 20.585938 2.828125 20.140625 3.578125 C 18.898438 5.628906 17.273438 6.832031 15.265625 7.1875 C 13.253906 7.550781 10.972656 6.96875 8.421875 5.4375 Z M 9.359375 -3.765625 C 7.960938 -1.441406 8.523438 0.472656 11.046875 1.984375 C 12.140625 2.648438 13.078125 2.890625 13.859375 2.703125 C 14.648438 2.515625 15.273438 2.039062 15.734375 1.28125 C 16.273438 0.375 16.40625 -0.546875 16.125 -1.484375 C 16.03125 -1.734375 15.976562 -1.972656 15.96875 -2.203125 C 15.957031 -2.429688 16.015625 -2.648438 16.140625 -2.859375 C 16.222656 -3.003906 16.375 -3.160156 16.59375 -3.328125 C 16.363281 -3.671875 16.082031 -3.988281 15.75 -4.28125 C 15.414062 -4.582031 15.039062 -4.859375 14.625 -5.109375 C 13.675781 -5.691406 12.710938 -5.863281 11.734375 -5.625 C 10.753906 -5.382812 9.960938 -4.765625 9.359375 -3.765625 Z M 9.359375 -3.765625 "/></g></g></g><g fill="#ffffff" fill-opacity="1"><g transform="translate(108.854838, 315.662184)"><g><path d="M 4.265625 2.203125 C 3.367188 1.804688 2.738281 1.359375 2.375 0.859375 C 2.019531 0.367188 1.988281 -0.21875 2.28125 -0.90625 C 2.320312 -1 2.367188 -1.085938 2.421875 -1.171875 C 2.484375 -1.265625 2.539062 -1.351562 2.59375 -1.4375 C 3.28125 -2.488281 4.023438 -3.796875 4.828125 -5.359375 C 5.640625 -6.929688 6.457031 -8.5625 7.28125 -10.25 C 7.5 -10.6875 7.707031 -11.125 7.90625 -11.5625 C 8.113281 -12 8.3125 -12.441406 8.5 -12.890625 C 9.09375 -14.234375 9.617188 -15.515625 10.078125 -16.734375 C 10.546875 -17.953125 10.941406 -18.921875 11.265625 -19.640625 C 11.503906 -20.203125 11.9375 -20.492188 12.5625 -20.515625 C 13.1875 -20.546875 13.898438 -20.390625 14.703125 -20.046875 C 15.265625 -19.796875 15.632812 -19.515625 15.8125 -19.203125 C 16 -18.898438 16.046875 -18.53125 15.953125 -18.09375 C 15.867188 -17.800781 15.660156 -17.222656 15.328125 -16.359375 C 14.992188 -15.503906 14.597656 -14.519531 14.140625 -13.40625 C 13.691406 -12.289062 13.238281 -11.207031 12.78125 -10.15625 C 14.59375 -10.726562 16.566406 -10.546875 18.703125 -9.609375 C 20.210938 -8.953125 21.351562 -8.066406 22.125 -6.953125 C 22.90625 -5.835938 23.316406 -4.601562 23.359375 -3.25 C 23.410156 -1.90625 23.132812 -0.539062 22.53125 0.84375 C 21.820312 2.445312 20.960938 3.722656 19.953125 4.671875 C 18.941406 5.628906 17.75 6.179688 16.375 6.328125 C 15.007812 6.484375 13.421875 6.164062 11.609375 5.375 C 10.441406 4.863281 9.503906 4.1875 8.796875 3.34375 C 8.097656 2.5 7.617188 1.546875 7.359375 0.484375 L 6.8125 1.375 C 6.425781 1.96875 6.03125 2.304688 5.625 2.390625 C 5.226562 2.484375 4.773438 2.421875 4.265625 2.203125 Z M 9.78125 -3.09375 C 9.988281 -1.039062 11 0.378906 12.8125 1.171875 C 13.914062 1.660156 14.929688 1.707031 15.859375 1.3125 C 16.785156 0.925781 17.503906 0.148438 18.015625 -1.015625 C 18.492188 -2.097656 18.578125 -3.082031 18.265625 -3.96875 C 17.953125 -4.863281 17.304688 -5.53125 16.328125 -5.96875 C 15.296875 -6.414062 14.25 -6.425781 13.1875 -6 C 12.125 -5.582031 11.066406 -4.691406 10.015625 -3.328125 Z M 9.78125 -3.09375 "/></g></g></g><g fill="#ffffff" fill-opacity="1"><g transform="translate(129.882404, 324.487544)"><g><path d="M 3.859375 1.5625 C 3.109375 1.3125 2.644531 0.984375 2.46875 0.578125 C 2.300781 0.179688 2.300781 -0.332031 2.46875 -0.96875 C 2.675781 -1.726562 2.929688 -2.65625 3.234375 -3.75 C 3.535156 -4.84375 3.859375 -5.953125 4.203125 -7.078125 C 4.554688 -8.210938 4.875 -9.210938 5.15625 -10.078125 C 6 -12.648438 6.742188 -14.742188 7.390625 -16.359375 C 8.046875 -17.984375 8.617188 -19.367188 9.109375 -20.515625 C 9.421875 -21.160156 9.757812 -21.570312 10.125 -21.75 C 10.5 -21.925781 11.007812 -21.910156 11.65625 -21.703125 C 12.738281 -21.347656 13.429688 -20.96875 13.734375 -20.5625 C 14.046875 -20.164062 14.050781 -19.570312 13.75 -18.78125 C 13.289062 -17.632812 12.71875 -16.210938 12.03125 -14.515625 C 11.34375 -12.828125 10.625 -10.832031 9.875 -8.53125 C 9.195312 -6.457031 8.65625 -4.738281 8.25 -3.375 C 7.84375 -2.019531 7.535156 -0.890625 7.328125 0.015625 C 7.316406 0.128906 7.296875 0.234375 7.265625 0.328125 C 7.234375 0.429688 7.195312 0.535156 7.15625 0.640625 C 6.914062 1.378906 6.53125 1.789062 6 1.875 C 5.476562 1.96875 4.765625 1.863281 3.859375 1.5625 Z M 3.859375 1.5625 "/></g></g></g><g fill="#ffffff" fill-opacity="1"><g transform="translate(138.959446, 327.667354)"><g><path d="M 9.640625 2.578125 C 6.734375 1.898438 4.75 0.671875 3.6875 -1.109375 C 2.632812 -2.890625 2.40625 -5.035156 3 -7.546875 C 3.59375 -10.085938 4.773438 -11.894531 6.546875 -12.96875 C 8.316406 -14.050781 10.710938 -14.238281 13.734375 -13.53125 C 15.472656 -13.113281 16.835938 -12.546875 17.828125 -11.828125 C 18.816406 -11.109375 19.476562 -10.28125 19.8125 -9.34375 C 20.15625 -8.40625 20.210938 -7.441406 19.984375 -6.453125 C 19.628906 -4.960938 18.863281 -3.90625 17.6875 -3.28125 C 16.519531 -2.65625 14.8125 -2.601562 12.5625 -3.125 C 11.550781 -3.363281 10.640625 -3.691406 9.828125 -4.109375 C 9.023438 -4.535156 8.304688 -5.03125 7.671875 -5.59375 C 7.453125 -3.1875 8.847656 -1.628906 11.859375 -0.921875 C 12.710938 -0.722656 13.441406 -0.65625 14.046875 -0.71875 C 14.648438 -0.789062 15.285156 -0.921875 15.953125 -1.109375 C 16.109375 -1.140625 16.25 -1.160156 16.375 -1.171875 C 16.5 -1.191406 16.628906 -1.1875 16.765625 -1.15625 C 17.335938 -1.019531 17.710938 -0.53125 17.890625 0.3125 C 18.023438 0.757812 18.050781 1.171875 17.96875 1.546875 C 17.894531 1.847656 17.738281 2.085938 17.5 2.265625 C 17.257812 2.453125 16.945312 2.597656 16.5625 2.703125 C 15.582031 3.023438 14.550781 3.171875 13.46875 3.140625 C 12.382812 3.109375 11.109375 2.921875 9.640625 2.578125 Z M 8.703125 -8.46875 C 9.097656 -8.03125 9.5625 -7.628906 10.09375 -7.265625 C 10.632812 -6.910156 11.300781 -6.640625 12.09375 -6.453125 C 13 -6.242188 13.695312 -6.222656 14.1875 -6.390625 C 14.6875 -6.554688 14.988281 -6.867188 15.09375 -7.328125 C 15.21875 -7.867188 15.097656 -8.347656 14.734375 -8.765625 C 14.378906 -9.191406 13.738281 -9.515625 12.8125 -9.734375 C 11.039062 -10.148438 9.671875 -9.726562 8.703125 -8.46875 Z M 8.703125 -8.46875 "/></g></g></g><g fill="#ffffff" fill-opacity="1"><g transform="translate(158.562526, 332.620038)"><g><path d="M 3.890625 0.625 C 3.117188 0.5625 2.578125 0.375 2.265625 0.0625 C 1.960938 -0.25 1.847656 -0.863281 1.921875 -1.78125 C 1.960938 -2.320312 2.019531 -3.023438 2.09375 -3.890625 C 2.175781 -4.753906 2.265625 -5.675781 2.359375 -6.65625 C 2.460938 -7.644531 2.566406 -8.628906 2.671875 -9.609375 C 2.785156 -10.585938 2.894531 -11.460938 3 -12.234375 C 3.101562 -13.015625 3.195312 -13.617188 3.28125 -14.046875 C 3.425781 -14.828125 3.695312 -15.351562 4.09375 -15.625 C 4.5 -15.894531 5.03125 -16.003906 5.6875 -15.953125 C 6.800781 -15.859375 7.523438 -15.625 7.859375 -15.25 C 8.203125 -14.882812 8.316406 -14.3125 8.203125 -13.53125 L 8.1875 -13.40625 C 8.925781 -14.09375 9.738281 -14.597656 10.625 -14.921875 C 11.507812 -15.253906 12.410156 -15.382812 13.328125 -15.3125 C 14.566406 -15.207031 15.609375 -14.867188 16.453125 -14.296875 C 17.296875 -13.734375 17.847656 -12.878906 18.109375 -11.734375 C 18.734375 -12.742188 19.570312 -13.472656 20.625 -13.921875 C 21.6875 -14.367188 22.863281 -14.539062 24.15625 -14.4375 C 25.851562 -14.300781 27.160156 -13.660156 28.078125 -12.515625 C 28.992188 -11.367188 29.347656 -9.503906 29.140625 -6.921875 C 29.023438 -5.515625 28.847656 -4.226562 28.609375 -3.0625 C 28.378906 -1.90625 28.097656 -0.691406 27.765625 0.578125 C 27.628906 1.234375 27.421875 1.703125 27.140625 1.984375 C 26.867188 2.273438 26.4375 2.394531 25.84375 2.34375 C 25.570312 2.320312 25.253906 2.265625 24.890625 2.171875 C 24.046875 1.960938 23.472656 1.722656 23.171875 1.453125 C 22.867188 1.179688 22.734375 0.8125 22.765625 0.34375 C 22.773438 0.238281 22.789062 0.125 22.8125 0 C 22.832031 -0.113281 22.863281 -0.234375 22.90625 -0.359375 C 23.0625 -0.984375 23.21875 -1.675781 23.375 -2.4375 C 23.53125 -3.195312 23.664062 -3.9375 23.78125 -4.65625 C 23.90625 -5.382812 23.988281 -6.003906 24.03125 -6.515625 C 24.132812 -7.816406 23.992188 -8.738281 23.609375 -9.28125 C 23.222656 -9.820312 22.625 -10.128906 21.8125 -10.203125 C 20.71875 -10.285156 19.800781 -9.882812 19.0625 -9 C 18.320312 -8.113281 17.878906 -6.984375 17.734375 -5.609375 C 17.710938 -5.335938 17.664062 -4.953125 17.59375 -4.453125 C 17.53125 -3.953125 17.457031 -3.421875 17.375 -2.859375 C 17.300781 -2.296875 17.226562 -1.773438 17.15625 -1.296875 C 17.09375 -0.816406 17.050781 -0.445312 17.03125 -0.1875 C 16.945312 0.570312 16.722656 1.054688 16.359375 1.265625 C 15.992188 1.472656 15.34375 1.539062 14.40625 1.46875 C 13.664062 1.40625 13.085938 1.25 12.671875 1 C 12.265625 0.757812 12.082031 0.328125 12.125 -0.296875 C 12.207031 -1.003906 12.316406 -1.835938 12.453125 -2.796875 C 12.597656 -3.765625 12.742188 -4.726562 12.890625 -5.6875 C 13.035156 -6.644531 13.132812 -7.5 13.1875 -8.25 C 13.269531 -9.269531 13.097656 -9.976562 12.671875 -10.375 C 12.253906 -10.769531 11.757812 -10.992188 11.1875 -11.046875 C 10.207031 -11.117188 9.335938 -10.695312 8.578125 -9.78125 C 7.828125 -8.875 7.382812 -7.617188 7.25 -6.015625 C 7.21875 -5.609375 7.171875 -5.09375 7.109375 -4.46875 C 7.054688 -3.851562 7 -3.253906 6.9375 -2.671875 C 6.882812 -2.085938 6.832031 -1.617188 6.78125 -1.265625 C 6.695312 -0.453125 6.429688 0.0820312 5.984375 0.34375 C 5.546875 0.601562 4.847656 0.695312 3.890625 0.625 Z M 3.890625 0.625 "/></g></g></g><g fill="#ffffff" fill-opacity="1"><g transform="translate(189.55243, 334.416365)"><g/></g></g><g fill="#ffffff" fill-opacity="1"><g transform="translate(200.380316, 334.535515)"><g><path d="M 8.359375 -1.09375 C 7.796875 -1 7.265625 -1.015625 6.765625 -1.140625 C 6.265625 -1.265625 5.773438 -1.5625 5.296875 -2.03125 C 4.316406 -3.09375 3.414062 -4.375 2.59375 -5.875 C 1.769531 -7.382812 1.015625 -8.984375 0.328125 -10.671875 C -0.359375 -12.359375 -0.96875 -14.035156 -1.5 -15.703125 C -2.03125 -17.367188 -2.476562 -18.882812 -2.84375 -20.25 C -2.851562 -20.332031 -2.863281 -20.40625 -2.875 -20.46875 C -2.894531 -20.53125 -2.910156 -20.59375 -2.921875 -20.65625 C -3.035156 -21.28125 -2.9375 -21.742188 -2.625 -22.046875 C -2.320312 -22.347656 -1.851562 -22.597656 -1.21875 -22.796875 C -1.0625 -22.835938 -0.894531 -22.878906 -0.71875 -22.921875 C -0.550781 -22.960938 -0.394531 -22.992188 -0.25 -23.015625 C 0.445312 -23.128906 0.992188 -23.082031 1.390625 -22.875 C 1.785156 -22.675781 2.0625 -22.28125 2.21875 -21.6875 C 2.925781 -18.851562 3.726562 -16.347656 4.625 -14.171875 C 5.519531 -12.003906 6.40625 -10.195312 7.28125 -8.75 C 7.5625 -10.3125 7.804688 -11.90625 8.015625 -13.53125 C 8.222656 -15.15625 8.390625 -16.6875 8.515625 -18.125 C 8.640625 -19.5625 8.707031 -20.773438 8.71875 -21.765625 C 8.820312 -22.835938 9.046875 -23.585938 9.390625 -24.015625 C 9.734375 -24.453125 10.210938 -24.722656 10.828125 -24.828125 C 11.515625 -24.941406 12.09375 -24.859375 12.5625 -24.578125 C 13.03125 -24.304688 13.523438 -23.671875 14.046875 -22.671875 C 15.210938 -20.265625 16.359375 -18.039062 17.484375 -16 C 18.617188 -13.957031 19.671875 -12.210938 20.640625 -10.765625 C 21.085938 -12.617188 21.378906 -14.765625 21.515625 -17.203125 C 21.648438 -19.640625 21.476562 -22.128906 21 -24.671875 C 20.875 -25.378906 20.972656 -25.894531 21.296875 -26.21875 C 21.628906 -26.550781 22.21875 -26.785156 23.0625 -26.921875 C 23.914062 -27.066406 24.609375 -27.070312 25.140625 -26.9375 C 25.671875 -26.8125 26 -26.382812 26.125 -25.65625 C 26.59375 -23.144531 26.828125 -20.640625 26.828125 -18.140625 C 26.835938 -15.640625 26.644531 -13.289062 26.25 -11.09375 C 25.863281 -8.90625 25.285156 -6.976562 24.515625 -5.3125 C 24.179688 -4.6875 23.785156 -4.226562 23.328125 -3.9375 C 22.878906 -3.65625 22.40625 -3.46875 21.90625 -3.375 C 21.414062 -3.289062 20.9375 -3.3125 20.46875 -3.4375 C 20 -3.5625 19.535156 -3.847656 19.078125 -4.296875 C 17.984375 -5.472656 16.921875 -6.894531 15.890625 -8.5625 C 14.859375 -10.238281 13.925781 -11.929688 13.09375 -13.640625 C 12.976562 -11.773438 12.726562 -9.878906 12.34375 -7.953125 C 11.957031 -6.023438 11.445312 -4.316406 10.8125 -2.828125 C 10.539062 -2.285156 10.195312 -1.882812 9.78125 -1.625 C 9.375 -1.363281 8.898438 -1.1875 8.359375 -1.09375 Z M 8.359375 -1.09375 "/></g></g></g><g fill="#ffffff" fill-opacity="1"><g transform="translate(231.493904, 328.754488)"><g><path d="M 9.578125 -2.84375 C 6.734375 -1.90625 4.394531 -1.914062 2.5625 -2.875 C 0.726562 -3.84375 -0.59375 -5.550781 -1.40625 -8 C -2.21875 -10.46875 -2.148438 -12.625 -1.203125 -14.46875 C -0.253906 -16.320312 1.6875 -17.734375 4.625 -18.703125 C 6.320312 -19.273438 7.78125 -19.507812 9 -19.40625 C 10.226562 -19.3125 11.226562 -18.953125 12 -18.328125 C 12.78125 -17.703125 13.332031 -16.90625 13.65625 -15.9375 C 14.132812 -14.476562 14.035156 -13.175781 13.359375 -12.03125 C 12.679688 -10.894531 11.253906 -9.96875 9.078125 -9.25 C 8.085938 -8.914062 7.132812 -8.71875 6.21875 -8.65625 C 5.300781 -8.59375 4.4375 -8.640625 3.625 -8.796875 C 4.675781 -6.617188 6.671875 -6.015625 9.609375 -6.984375 C 10.441406 -7.253906 11.097656 -7.578125 11.578125 -7.953125 C 12.054688 -8.328125 12.535156 -8.773438 13.015625 -9.296875 C 13.128906 -9.390625 13.238281 -9.476562 13.34375 -9.5625 C 13.445312 -9.644531 13.5625 -9.707031 13.6875 -9.75 C 14.25 -9.9375 14.828125 -9.71875 15.421875 -9.09375 C 15.765625 -8.78125 16 -8.441406 16.125 -8.078125 C 16.21875 -7.785156 16.207031 -7.492188 16.09375 -7.203125 C 15.988281 -6.921875 15.800781 -6.640625 15.53125 -6.359375 C 14.863281 -5.578125 14.0625 -4.910156 13.125 -4.359375 C 12.1875 -3.816406 11.003906 -3.3125 9.578125 -2.84375 Z M 2.984375 -11.765625 C 3.554688 -11.585938 4.164062 -11.488281 4.8125 -11.46875 C 5.457031 -11.457031 6.164062 -11.578125 6.9375 -11.828125 C 7.820312 -12.117188 8.425781 -12.46875 8.75 -12.875 C 9.082031 -13.28125 9.175781 -13.707031 9.03125 -14.15625 C 8.851562 -14.675781 8.5 -15.019531 7.96875 -15.1875 C 7.4375 -15.363281 6.71875 -15.300781 5.8125 -15 C 4.09375 -14.425781 3.148438 -13.347656 2.984375 -11.765625 Z M 2.984375 -11.765625 "/></g></g></g><g fill="#ffffff" fill-opacity="1"><g transform="translate(250.435291, 322.464053)"><g><path d="M 6.890625 -2.890625 C 4.953125 -1.984375 3.296875 -1.722656 1.921875 -2.109375 C 0.554688 -2.503906 -0.460938 -3.421875 -1.140625 -4.859375 C -1.585938 -5.804688 -1.765625 -6.738281 -1.671875 -7.65625 C -1.578125 -8.570312 -1.132812 -9.460938 -0.34375 -10.328125 C 0.445312 -11.203125 1.664062 -12.023438 3.3125 -12.796875 C 4.113281 -13.179688 4.960938 -13.429688 5.859375 -13.546875 C 6.765625 -13.660156 7.613281 -13.640625 8.40625 -13.484375 C 8.3125 -13.679688 8.207031 -13.882812 8.09375 -14.09375 C 7.988281 -14.300781 7.890625 -14.476562 7.796875 -14.625 C 7.347656 -15.300781 6.722656 -15.6875 5.921875 -15.78125 C 5.128906 -15.882812 4.25 -15.707031 3.28125 -15.25 C 2.550781 -14.90625 1.925781 -14.507812 1.40625 -14.0625 C 0.882812 -13.625 0.378906 -13.148438 -0.109375 -12.640625 C -0.285156 -12.492188 -0.4375 -12.363281 -0.5625 -12.25 C -0.695312 -12.132812 -0.847656 -12.039062 -1.015625 -11.96875 C -1.335938 -11.8125 -1.65625 -11.773438 -1.96875 -11.859375 C -2.28125 -11.941406 -2.632812 -12.140625 -3.03125 -12.453125 C -3.414062 -12.742188 -3.679688 -13.046875 -3.828125 -13.359375 C -3.953125 -13.640625 -3.988281 -13.910156 -3.9375 -14.171875 C -3.894531 -14.441406 -3.773438 -14.707031 -3.578125 -14.96875 C -3.109375 -15.65625 -2.378906 -16.34375 -1.390625 -17.03125 C -0.410156 -17.726562 0.734375 -18.382812 2.046875 -19 C 3.492188 -19.6875 4.898438 -20.066406 6.265625 -20.140625 C 7.628906 -20.210938 8.847656 -19.960938 9.921875 -19.390625 C 10.992188 -18.828125 11.820312 -17.914062 12.40625 -16.65625 C 12.820312 -15.789062 13.144531 -15.078125 13.375 -14.515625 C 13.601562 -13.953125 13.863281 -13.359375 14.15625 -12.734375 C 14.375 -12.273438 14.675781 -11.816406 15.0625 -11.359375 C 15.445312 -10.910156 15.796875 -10.5625 16.109375 -10.3125 C 16.335938 -10.113281 16.507812 -9.894531 16.625 -9.65625 C 16.914062 -9.039062 16.617188 -8.28125 15.734375 -7.375 C 15.335938 -7 14.96875 -6.734375 14.625 -6.578125 C 13.726562 -6.160156 12.992188 -6.28125 12.421875 -6.9375 C 12.253906 -7.101562 12.101562 -7.25 11.96875 -7.375 C 11.832031 -7.5 11.71875 -7.625 11.625 -7.75 C 11.3125 -6.875 10.796875 -6.015625 10.078125 -5.171875 C 9.367188 -4.328125 8.304688 -3.566406 6.890625 -2.890625 Z M 3.140625 -7.375 C 3.640625 -6.332031 4.71875 -6.203125 6.375 -6.984375 C 7.164062 -7.359375 7.796875 -7.800781 8.265625 -8.3125 C 8.742188 -8.832031 9.132812 -9.488281 9.4375 -10.28125 C 8.832031 -10.632812 8.117188 -10.789062 7.296875 -10.75 C 6.484375 -10.71875 5.695312 -10.523438 4.9375 -10.171875 C 4.039062 -9.742188 3.460938 -9.285156 3.203125 -8.796875 C 2.941406 -8.316406 2.921875 -7.84375 3.140625 -7.375 Z M 3.140625 -7.375 "/></g></g></g><g fill="#ffffff" fill-opacity="1"><g transform="translate(269.418719, 313.445107)"><g><path d="M 7.671875 -4.453125 C 7.148438 -4.117188 6.613281 -3.882812 6.0625 -3.75 C 5.519531 -3.625 4.960938 -3.585938 4.390625 -3.640625 C 2.285156 -3.941406 0.257812 -4.914062 -1.6875 -6.5625 C -3.644531 -8.207031 -5.414062 -10.304688 -7 -12.859375 C -7.351562 -13.421875 -7.425781 -13.90625 -7.21875 -14.3125 C -7.019531 -14.71875 -6.578125 -15.132812 -5.890625 -15.5625 C -5.203125 -16 -4.609375 -16.253906 -4.109375 -16.328125 C -3.617188 -16.398438 -3.21875 -16.1875 -2.90625 -15.6875 C -1.625 -13.601562 -0.222656 -11.953125 1.296875 -10.734375 C 2.816406 -9.515625 4.222656 -8.675781 5.515625 -8.21875 C 5.796875 -9.226562 5.941406 -10.351562 5.953125 -11.59375 C 5.960938 -12.832031 5.785156 -14.144531 5.421875 -15.53125 C 5.054688 -16.914062 4.453125 -18.300781 3.609375 -19.6875 C 3.046875 -20.570312 3.445312 -21.441406 4.8125 -22.296875 C 5.664062 -22.835938 6.3125 -23.082031 6.75 -23.03125 C 7.1875 -22.976562 7.535156 -22.742188 7.796875 -22.328125 C 9.410156 -19.691406 10.40625 -17.019531 10.78125 -14.3125 C 11.15625 -11.613281 10.867188 -9.175781 9.921875 -7 C 9.671875 -6.476562 9.359375 -6 8.984375 -5.5625 C 8.609375 -5.132812 8.171875 -4.765625 7.671875 -4.453125 Z M 7.671875 -4.453125 "/></g></g></g><g fill="#ffffff" fill-opacity="1"><g transform="translate(286.512424, 302.631988)"><g><path d="M 7.96875 -6.015625 C 5.644531 -4.140625 3.453125 -3.332031 1.390625 -3.59375 C -0.660156 -3.851562 -2.5 -4.988281 -4.125 -7 C -5.757812 -9.019531 -6.457031 -11.0625 -6.21875 -13.125 C -5.988281 -15.1875 -4.671875 -17.191406 -2.265625 -19.140625 C -0.867188 -20.265625 0.414062 -20.992188 1.59375 -21.328125 C 2.78125 -21.671875 3.84375 -21.6875 4.78125 -21.375 C 5.726562 -21.0625 6.523438 -20.507812 7.171875 -19.71875 C 8.128906 -18.53125 8.492188 -17.28125 8.265625 -15.96875 C 8.035156 -14.664062 7.023438 -13.289062 5.234375 -11.84375 C 4.429688 -11.1875 3.613281 -10.664062 2.78125 -10.28125 C 1.945312 -9.894531 1.117188 -9.632812 0.296875 -9.5 C 2.054688 -7.84375 4.140625 -7.984375 6.546875 -9.921875 C 7.222656 -10.472656 7.71875 -11.003906 8.03125 -11.515625 C 8.351562 -12.035156 8.648438 -12.625 8.921875 -13.28125 C 8.984375 -13.414062 9.050781 -13.539062 9.125 -13.65625 C 9.195312 -13.769531 9.285156 -13.867188 9.390625 -13.953125 C 9.847656 -14.328125 10.460938 -14.320312 11.234375 -13.9375 C 11.660156 -13.757812 12 -13.519531 12.25 -13.21875 C 12.4375 -12.988281 12.53125 -12.722656 12.53125 -12.421875 C 12.53125 -12.117188 12.453125 -11.785156 12.296875 -11.421875 C 11.953125 -10.453125 11.4375 -9.546875 10.75 -8.703125 C 10.070312 -7.867188 9.144531 -6.972656 7.96875 -6.015625 Z M -1.359375 -12.078125 C -0.753906 -12.109375 -0.148438 -12.222656 0.453125 -12.421875 C 1.066406 -12.628906 1.691406 -12.988281 2.328125 -13.5 C 3.054688 -14.09375 3.5 -14.632812 3.65625 -15.125 C 3.820312 -15.613281 3.757812 -16.039062 3.46875 -16.40625 C 3.125 -16.84375 2.671875 -17.046875 2.109375 -17.015625 C 1.554688 -16.992188 0.910156 -16.6875 0.171875 -16.09375 C -1.242188 -14.945312 -1.753906 -13.609375 -1.359375 -12.078125 Z M -1.359375 -12.078125 "/></g></g></g><g fill="#ffffff" fill-opacity="1"><g transform="translate(301.861264, 290.059047)"><g><path d="M 3.3125 -2.875 C 2.820312 -2.375 2.394531 -2.054688 2.03125 -1.921875 C 1.664062 -1.785156 1.335938 -1.789062 1.046875 -1.9375 C 0.753906 -2.082031 0.46875 -2.28125 0.1875 -2.53125 C -0.550781 -3.21875 -1.359375 -3.972656 -2.234375 -4.796875 C -3.109375 -5.628906 -3.941406 -6.445312 -4.734375 -7.25 C -5.492188 -8.007812 -6.164062 -8.707031 -6.75 -9.34375 C -7.332031 -9.988281 -7.941406 -10.648438 -8.578125 -11.328125 C -9.148438 -11.960938 -9.414062 -12.515625 -9.375 -12.984375 C -9.34375 -13.460938 -9.070312 -13.957031 -8.5625 -14.46875 C -7.8125 -15.21875 -7.1875 -15.59375 -6.6875 -15.59375 C -6.1875 -15.601562 -5.734375 -15.410156 -5.328125 -15.015625 C -5.367188 -15.847656 -5.25 -16.601562 -4.96875 -17.28125 C -4.695312 -17.96875 -4.320312 -18.550781 -3.84375 -19.03125 C -3.3125 -19.5625 -2.789062 -19.953125 -2.28125 -20.203125 C -1.769531 -20.460938 -1.238281 -20.601562 -0.6875 -20.625 C -0.175781 -20.65625 0.226562 -20.519531 0.53125 -20.21875 C 0.675781 -20.070312 0.8125 -19.875 0.9375 -19.625 C 1.0625 -19.375 1.179688 -19.070312 1.296875 -18.71875 C 1.398438 -18.300781 1.425781 -17.898438 1.375 -17.515625 C 1.332031 -17.128906 1.191406 -16.8125 0.953125 -16.5625 C 0.796875 -16.414062 0.585938 -16.304688 0.328125 -16.234375 C -0.390625 -16.054688 -1.007812 -15.710938 -1.53125 -15.203125 C -1.851562 -14.867188 -2.09375 -14.453125 -2.25 -13.953125 C -2.40625 -13.460938 -2.375 -12.90625 -2.15625 -12.28125 C -1.9375 -11.65625 -1.429688 -10.945312 -0.640625 -10.15625 C -0.492188 -10.007812 -0.226562 -9.753906 0.15625 -9.390625 C 0.539062 -9.035156 0.960938 -8.640625 1.421875 -8.203125 C 1.890625 -7.765625 2.332031 -7.359375 2.75 -6.984375 C 3.175781 -6.609375 3.503906 -6.304688 3.734375 -6.078125 C 4.210938 -5.597656 4.421875 -5.101562 4.359375 -4.59375 C 4.304688 -4.09375 3.957031 -3.519531 3.3125 -2.875 Z M 3.3125 -2.875 "/></g></g></g></svg>